<?xml version="1.0" encoding="UTF-8" standalone="no"?>
<!-- Created with Inkscape (http://www.inkscape.org/) -->

<svg
   width="297mm"
   height="210mm"
   viewBox="0 0 297 210"
   version="1.1"
   id="svg5"
   inkscape:export-filename="C:\Users\cevin\bitmap.png"
   inkscape:export-xdpi="96"
   inkscape:export-ydpi="96"
   inkscape:version="1.1.1 (3bf5ae0d25, 2021-09-20)"
   sodipodi:docname="certificate.svg"
   xmlns:inkscape="http://www.inkscape.org/namespaces/inkscape"
   xmlns:sodipodi="http://sodipodi.sourceforge.net/DTD/sodipodi-0.dtd"
   xmlns:xlink="http://www.w3.org/1999/xlink"
   xmlns="http://www.w3.org/2000/svg"
   xmlns:svg="http://www.w3.org/2000/svg">
  <sodipodi:namedview
     id="namedview7"
     pagecolor="#ffffff"
     bordercolor="#666666"
     borderopacity="1.0"
     inkscape:pageshadow="2"
     inkscape:pageopacity="0.0"
     inkscape:pagecheckerboard="0"
     inkscape:document-units="mm"
     showgrid="false"
     inkscape:zoom="0.6349676"
     inkscape:cx="593.73108"
     inkscape:cy="318.12647"
     inkscape:window-width="1920"
     inkscape:window-height="974"
     inkscape:window-x="-11"
     inkscape:window-y="-11"
     inkscape:window-maximized="1"
     inkscape:current-layer="layer1" />
  <defs
     id="defs2">
    <linearGradient
       inkscape:collect="always"
       id="linearGradient37598">
      <stop
         style="stop-color:#ffae00;stop-opacity:1"
         offset="0"
         id="stop37594" />
      <stop
         style="stop-color:#a26e00;stop-opacity:1"
         offset="1"
         id="stop37596" />
    </linearGradient>
    <linearGradient
       inkscape:collect="always"
       xlink:href="#linearGradient37598"
       id="linearGradient15225"
       x1="14.142856"
       y1="76.522301"
       x2="87.29335"
       y2="10.5223"
       gradientUnits="userSpaceOnUse"
       gradientTransform="scale(0.64972741)" />
    <linearGradient
       inkscape:collect="always"
       xlink:href="#linearGradient37598"
       id="linearGradient166260"
       gradientUnits="userSpaceOnUse"
       gradientTransform="scale(0.64972741)"
       x1="14.142856"
       y1="76.522301"
       x2="87.29335"
       y2="10.5223" />
  </defs>
  <g
     inkscape:label="Layer 1"
     inkscape:groupmode="layer"
     id="layer1">
    <rect
       style="fill:#ffffff;fill-opacity:1;stroke:none;stroke-width:1.77911;stroke-linecap:round;stroke-linejoin:round"
       id="rect6879"
       width="297"
       height="210"
       x="1.4210855e-14"
       y="-3.5527137e-15" />
    <g
       id="g166250"
       transform="scale(1.2221832)"
       inkscape:export-filename="C:\xampp\htdocs\kuliah_indo\public\img\certificate\certificate.png"
       inkscape:export-xdpi="96"
       inkscape:export-ydpi="96">
      <path
         id="path7070"
         style="fill:#003b72;fill-opacity:1;stroke:none;stroke-width:0.173897px;stroke-linecap:butt;stroke-linejoin:miter;stroke-opacity:1"
         d="M -1.1204e-6,52.844533 62.452711,4.212776e-6 H -1.1203999e-6 Z" />
      <path
         id="path7072"
         style="fill:url(#linearGradient15225);fill-opacity:1;stroke:none;stroke-width:0.556418;stroke-linecap:round;stroke-linejoin:round"
         d="M -1.1204e-6,66.892889 71.266137,4.212776e-6 H 51.244121 L -1.1203999e-6,48.099367 Z" />
      <path
         id="path7074"
         style="fill:#003b72;fill-opacity:1;stroke-width:0.349161;stroke-linecap:round;stroke-linejoin:round"
         d="M 15.821642,60.610272 15.460949,45.486993 51.911242,11.564967 52.271928,26.68824 Z"
         sodipodi:nodetypes="ccccc" />
    </g>
    <path
       style="fill:#ffae00;stroke-width:0.19959;fill-opacity:0.12226278"
       d="m 97.660842,178.70413 c 3.248398,-0.96487 6.689998,-3.4142 11.712308,-8.33759 l 2.8441,-2.78802 v -18.50088 -18.50078 l 7.33499,-7.05342 c 4.03422,-3.87933 8.04627,-7.74287 8.91569,-8.5856 l 1.58083,-1.53229 2.61061,2.33333 c 3.54784,3.17095 5.07677,4.4355 13.28861,10.99046 8.52673,6.80658 11.4823,9.3214 13.91711,11.84202 3.77356,3.90673 4.68525,6.33203 3.02419,8.04592 -1.26246,1.30252 -4.14963,2.03389 -8.82153,2.23464 l -3.15702,0.13585 -1.54588,-1.59674 c -0.84992,-0.87778 -3.38738,-3.75231 -5.63816,-6.38695 -7.16662,-8.38833 -9.88161,-10.43883 -13.55137,-10.23413 -1.65096,0.0929 -3.15597,0.74658 -4.65401,2.02612 l -0.76749,0.65486 2.28585,4.07591 c 1.25712,2.24184 3.88189,6.99501 5.83264,10.56271 4.12317,7.54073 5.49465,9.85456 9.45248,15.94775 l 2.90424,4.47137 16.0771,-0.12307 c 8.84232,-0.0697 18.18762,-0.21713 20.76734,-0.33091 11.89646,-0.52598 18.48915,-1.44069 21.69981,-3.01095 4.86731,-2.38048 3.70122,-6.03572 -4.45442,-13.96345 -3.2477,-3.15678 -7.10892,-6.54416 -18.44294,-16.17892 -16.33603,-13.88694 -28.5605,-24.72901 -36.2661,-32.165 l -1.63726,-1.57991 2.53537,-2.443292 c 9.36295,-9.022402 19.50511,-18.128751 38.26201,-34.354353 14.20472,-12.287632 18.74332,-16.848877 20.51271,-20.614655 0.75704,-1.611251 0.72104,-3.201602 -0.0929,-4.274222 -1.77635,-2.329039 -7.85678,-3.6571 -19.91637,-4.350273 -4.91433,-0.282146 -20.88855,-0.588675 -30.94108,-0.593319 l -8.48737,-0.0048 -1.5107,1.54681 c -7.94154,8.131069 -15.42189,18.25477 -19.50372,26.395901 -2.99632,5.97569 -3.63376,9.812063 -1.79412,10.796555 0.26241,0.140492 0.8952,0.188097 1.62019,0.121915 3.89617,-0.352973 13.04153,-6.945204 24.7651,-17.850786 l 3.76683,-3.504067 2.12097,0.116109 c 1.16667,0.05806 2.61513,0.220608 3.21879,0.348329 1.67139,0.355295 3.50313,1.297987 4.13779,2.130144 0.49811,0.653696 0.55268,0.882432 0.55268,2.336703 0,1.477145 -0.0697,1.75453 -0.81625,3.308771 -0.44818,0.933521 -1.50048,2.604568 -2.33705,3.714226 -1.45195,1.926024 -6.23612,7.223054 -7.44924,8.247836 -0.31581,0.267052 -1.60765,1.445911 -2.87011,2.619546 -3.40491,3.16584 -7.00453,6.279896 -13.57215,11.741221 -3.23829,2.692811 -7.99855,6.651215 -10.57827,8.796453 -2.57972,2.145239 -6.1127,5.157928 -7.8512,6.694758 -1.73851,1.53694 -3.51231,3.09792 -3.94192,3.46889 l -0.78142,0.67459 V 70.277611 34.329888 l -1.34721,-1.113489 c -2.90866,-2.402073 -6.24658,-4.441652 -8.83187,-5.39584 -2.132119,-0.787222 -4.605599,-0.811605 -6.204542,-0.05805 -2.521085,1.182226 -4.27248,3.967692 -5.460977,8.685104 -1.804805,7.164302 -2.132814,15.796577 -1.716794,45.180283 0.274018,19.332924 0.198547,24.786584 -0.628152,45.406694 -0.517849,12.91127 -0.62583,32.52193 -0.203192,36.62477 1.253518,12.15713 4.313583,16.74531 10.035341,15.04674 z"
       id="path956" />
    <text
       xml:space="preserve"
       style="font-style:normal;font-variant:normal;font-weight:normal;font-stretch:normal;font-size:10.5833px;line-height:1.25;font-family:Calibri;-inkscape-font-specification:Calibri;letter-spacing:0.438488px;word-spacing:0px;fill:#4d4d4d;stroke-width:0.757953"
       x="90.640068"
       y="30.843863"
       id="text46247"
       transform="scale(1.0640324,0.939821)"><tspan
         sodipodi:role="line"
         id="tspan46245"
         style="font-style:normal;font-variant:normal;font-weight:normal;font-stretch:normal;font-size:10.5833px;font-family:Calibri;-inkscape-font-specification:Calibri;fill:#4d4d4d;stroke-width:0.757953"
         x="90.640068"
         y="30.843863">COURSE CERTIFICATE</tspan></text>
    <text
       xml:space="preserve"
       style="font-style:normal;font-variant:normal;font-weight:normal;font-stretch:normal;font-size:6.11378px;line-height:1.25;font-family:Calibri;-inkscape-font-specification:Calibri;fill:#333333;stroke-width:0.522218"
       x="123.31051"
       y="52.35849"
       id="text62007"><tspan
         sodipodi:role="line"
         id="tspan62005"
         style="font-style:normal;font-variant:normal;font-weight:normal;font-stretch:normal;font-size:6.11378px;font-family:Calibri;-inkscape-font-specification:Calibri;fill:#333333;stroke-width:0.522218"
         x="123.31051"
         y="52.35849">This is to certify that</tspan></text>
    <g
       id="g102369"
       transform="matrix(0.86651956,0,0,0.86651956,19.821845,-16.803325)"
       style="fill:#333333">
      <text
         xml:space="preserve"
         style="font-style:normal;font-variant:normal;font-weight:normal;font-stretch:normal;font-size:7.05556px;line-height:1.25;font-family:Calibri;-inkscape-font-specification:Calibri;fill:#333333;stroke-width:0.602661"
         x="67.831314"
         y="115.84075"
         id="text67401"><tspan
           sodipodi:role="line"
           id="tspan67399"
           style="font-style:normal;font-variant:normal;font-weight:normal;font-stretch:normal;font-size:7.05556px;font-family:Calibri;-inkscape-font-specification:Calibri;fill:#333333;stroke-width:0.602661"
           x="67.831314"
           y="115.84075">has successfully completed the course by demonstrating</tspan></text>
      <text
         xml:space="preserve"
         style="font-style:normal;font-variant:normal;font-weight:normal;font-stretch:normal;font-size:7.05556px;line-height:1.25;font-family:Calibri;-inkscape-font-specification:Calibri;fill:#333333;stroke-width:0.602661"
         x="87.070465"
         y="123.736"
         id="text68659"><tspan
           sodipodi:role="line"
           id="tspan68657"
           style="font-style:normal;font-variant:normal;font-weight:normal;font-stretch:normal;font-size:7.05556px;font-family:Calibri;-inkscape-font-specification:Calibri;fill:#333333;stroke-width:0.602661"
           x="87.070465"
           y="123.736">theorectical and practical understanding of</tspan></text>
    </g>
    <g
       id="g126850"
       transform="matrix(0.87335747,0,0,0.87335747,7.7451711,15.99666)">
      <text
         xml:space="preserve"
         style="font-style:normal;font-variant:normal;font-weight:normal;font-stretch:normal;font-size:6.40475px;line-height:1.25;font-family:Calibri;-inkscape-font-specification:Calibri;fill:#333333;stroke-width:0.547071"
         x="21.79879"
         y="190.32227"
         id="text102499"><tspan
           sodipodi:role="line"
           id="tspan102497"
           style="font-style:normal;font-variant:normal;font-weight:normal;font-stretch:normal;font-size:6.40475px;font-family:Calibri;-inkscape-font-specification:Calibri;fill:#333333;stroke-width:0.547071"
           x="21.79879"
           y="190.32227">Chief Executive Officer</tspan></text>
      <text
         xml:space="preserve"
         style="font-style:normal;font-variant:normal;font-weight:normal;font-stretch:normal;font-size:6.40475px;line-height:1.25;font-family:Calibri;-inkscape-font-specification:Calibri;fill:#333333;stroke-width:0.547071"
         x="21.855082"
         y="183.0183"
         id="text104303"><tspan
           sodipodi:role="line"
           id="tspan104301"
           style="font-style:normal;font-variant:normal;font-weight:bold;font-stretch:normal;font-size:6.40475px;font-family:Calibri;-inkscape-font-specification:'Calibri Bold';fill:#333333;stroke-width:0.547071"
           x="21.855082"
           y="183.0183">Nurika Andana</tspan></text>
    </g>
    <g
       id="g1193"
       transform="matrix(0.8558627,0,0,0.8558627,119.00528,173.41006)">
      <path
         style="fill:#000000;stroke-width:0.0554283"
         d="m 56.198328,4.5876827 c 0.132654,-0.1326548 0.162023,-0.2087727 0.162023,-0.4199742 0,-0.3530936 -0.217762,-0.5819973 -0.553664,-0.5819973 -0.287169,0 -0.419836,0.069539 -0.526612,0.276033 -0.139856,0.2704422 -0.107372,0.4873982 0.104733,0.6995031 0.255647,0.2556467 0.573971,0.2659904 0.81352,0.026448 z"
         id="path982" />
      <path
         style="fill:#000000;stroke-width:0.0554283"
         d="m 38.747124,4.5879576 c 0.153807,-0.1374273 0.181021,-0.1993651 0.181021,-0.4120724 0,-0.2014338 -0.03182,-0.2835223 -0.162802,-0.4202556 -0.135718,-0.141663 -0.20544,-0.1699249 -0.419195,-0.1699249 -0.208164,0 -0.283254,0.028674 -0.399116,0.1524257 -0.189847,0.2027759 -0.231771,0.3637515 -0.155169,0.5958565 0.140989,0.4271886 0.61913,0.5543114 0.955261,0.2539707 z"
         id="path980" />
      <path
         style="fill:#000000;stroke-width:0.0554283"
         d="m 57.136345,10.892788 c 0,-0.155581 0.002,-0.154684 -0.512033,-0.238619 -0.13187,-0.02154 -0.232616,-0.0783 -0.277146,-0.156164 -0.05309,-0.09284 -0.06996,-0.652321 -0.06996,-2.3208986 0,-1.2092056 -0.01715,-2.2157269 -0.03804,-2.236709 -0.02095,-0.020949 -0.236858,0.028085 -0.479837,0.1089821 -0.242979,0.080917 -0.624936,0.1776565 -0.848792,0.2149789 -0.376636,0.062782 -0.408289,0.078638 -0.423916,0.2122294 -0.01643,0.1406089 -0.0074,0.1449755 0.346272,0.1675026 0.199739,0.012701 0.394416,0.054337 0.432603,0.092478 0.05021,0.050147 0.07475,0.4097549 0.08862,1.2999488 0.02298,1.4760668 -0.0273,2.4502478 -0.131993,2.5549088 -0.04066,0.04065 -0.225244,0.09108 -0.410141,0.112 -0.318901,0.03607 -0.336177,0.04576 -0.336177,0.187712 v 0.149676 h 1.330279 1.330279 z"
         id="path978" />
      <path
         style="fill:#000000;stroke-width:0.0554283"
         d="m 48.101528,10.895407 c 0,-0.138187 -0.02036,-0.148753 -0.393512,-0.204138 -0.216439,-0.03214 -0.409487,-0.07437 -0.429002,-0.09389 -0.104328,-0.104328 -0.154076,-2.2551056 -0.06766,-2.925404 0.06101,-0.4731199 0.221408,-0.6958828 0.654148,-0.908374 0.421329,-0.2068938 0.97784,-0.2181998 1.317834,-0.026776 0.517663,0.29147 0.613369,0.7250285 0.558639,2.5305947 -0.02036,0.6706847 -0.05126,1.3441393 -0.06867,1.4965643 l -0.03169,0.277146 h 0.920558 0.920557 l -2.6e-5,-0.148445 c -2.6e-5,-0.13822 -0.02088,-0.151038 -0.302639,-0.186246 C 50.64813,10.639979 50.682906,10.767849 50.6505,8.7592294 50.623206,7.0679271 50.616922,6.9852036 50.498113,6.76157 50.332025,6.4489085 50.130401,6.2640377 49.764404,6.0888166 49.501097,5.9627608 49.387232,5.9427935 48.928933,5.9423025 48.316684,5.9416478 48.227244,5.9838083 47.562006,6.5870559 L 47.186987,6.9271217 47.17121,6.4008299 c -0.0086,-0.2894667 0.0067,-1.1347506 0.03404,-1.8784108 0.02743,-0.7436602 0.04085,-1.3682107 0.02992,-1.3878899 -0.01093,-0.019705 -0.204714,0.022913 -0.430606,0.094645 -0.225899,0.071738 -0.62512,0.1614273 -0.887163,0.1993128 -0.468452,0.067732 -0.476446,0.071489 -0.476446,0.2240722 0,0.1511425 0.0079,0.1551818 0.304858,0.1551818 0.230953,0 0.331726,0.026841 0.415713,0.1108544 0.108301,0.1083013 0.110854,0.1847596 0.110854,3.3151061 0,2.4761789 -0.01571,3.2256585 -0.06928,3.2984905 -0.04098,0.05578 -0.210783,0.119097 -0.415712,0.15509 -0.322227,0.05656 -0.34643,0.07107 -0.34643,0.207346 v 0.146507 h 1.33028 1.330279 z"
         id="path976" />
      <path
         style="fill:#000000;stroke-width:0.0554283"
         d="m 39.676441,10.891479 c -1.3e-5,-0.130338 -0.02717,-0.154285 -0.20787,-0.183339 -0.327221,-0.05264 -0.423921,-0.07781 -0.507732,-0.132295 -0.12796,-0.0832 -0.173414,-1.1530288 -0.125086,-2.9441335 0.02422,-0.8988616 0.02534,-1.6564466 0.0026,-1.6835235 -0.0235,-0.027758 -0.242894,0.015712 -0.502422,0.099463 -0.253389,0.081781 -0.647778,0.1793979 -0.87642,0.2169167 -0.391529,0.064223 -0.416734,0.077015 -0.433251,0.2192539 -0.01741,0.1497415 -0.01466,0.1510181 0.318711,0.1510181 0.265695,0 0.360229,0.023961 0.450527,0.1142718 0.111522,0.1115288 0.113853,0.1581933 0.09699,1.9445189 -0.01977,2.0931086 0.01984,1.9470136 -0.544786,2.0108956 -0.297454,0.03365 -0.33162,0.05054 -0.33162,0.164098 0,0.06962 0.01041,0.136969 0.02317,0.149676 0.0127,0.0127 0.611359,0.02311 1.330292,0.02311 h 1.307157 z"
         id="path974" />
      <path
         style="fill:#000000;stroke-width:0.0554283"
         d="m 36.516988,10.892788 c 2.6e-5,-0.138782 -0.02029,-0.150979 -0.312131,-0.187444 -0.578403,-0.07227 -0.532086,0.282528 -0.51043,-3.9094106 0.0129,-2.4923099 6.55e-4,-3.6532602 -0.03849,-3.6532536 -0.03155,6.5e-6 -0.197944,0.049427 -0.369787,0.1098266 -0.258704,0.090926 -1.151366,0.2781868 -1.32611,0.2781868 -0.02651,0 -0.04818,0.074828 -0.04818,0.1662849 V 3.863263 h 0.3535 c 0.233014,0 0.375136,0.026056 0.417002,0.076524 0.04655,0.056039 0.05944,0.9530091 0.04838,3.3554531 -0.01283,2.7770689 -0.0273,3.2864449 -0.09469,3.3280619 -0.04373,0.02704 -0.22457,0.06597 -0.401854,0.08655 -0.30237,0.03509 -0.322324,0.04648 -0.322337,0.184393 l -1.3e-5,0.146986 h 1.302561 1.302561 z"
         id="path972" />
      <path
         style="fill:#000000;stroke-width:0.0554283"
         d="m 22.659928,10.896716 c 7e-6,-0.137323 -0.01768,-0.146062 -0.359974,-0.178023 -0.523084,-0.04884 -0.566959,-0.0845 -0.60859,-0.494691 -0.06232,-0.6140629 -0.01054,-2.7735149 0.06716,-2.7993676 0.03771,-0.01257 0.386907,0.2829266 0.775994,0.656616 0.389081,0.3736828 1.236911,1.1888717 1.884067,1.8115237 l 1.176649,1.1320989 0.76334,-0.0026 0.763346,-0.0026 0.01741,-0.140622 c 0.01545,-0.124648 -0.0069,-0.144511 -0.197041,-0.174914 -0.188563,-0.03011 -0.455091,-0.261787 -2.206843,-1.9179521 -1.095805,-1.036014 -1.992375,-1.9052652 -1.992375,-1.9316678 0,-0.050671 1.707039,-1.6518771 2.545691,-2.3878254 0.578377,-0.5075552 0.736007,-0.5922296 1.190986,-0.6397845 0.317532,-0.033192 0.337303,-0.043732 0.337303,-0.1797841 v -0.144537 h -0.914567 -0.914567 v 0.1972834 c 0,0.1839608 -0.105879,0.3046745 -1.567844,1.7875629 -0.862312,0.8746587 -1.610594,1.5902796 -1.662849,1.5902796 -0.08709,0 -0.09489,-0.1096564 -0.09368,-1.3164201 0.0013,-1.2786198 0.03712,-1.6819197 0.160537,-1.8053044 0.0328,-0.032799 0.222848,-0.076517 0.422338,-0.097165 0.199496,-0.020622 0.371712,-0.046874 0.382697,-0.058331 0.011,-0.011391 0.02867,-0.07983 0.03921,-0.1520133 l 0.01931,-0.1312407 -1.510412,-0.00733 -1.510411,-0.00733 -1.1e-5,0.1524323 c -5e-6,0.1444518 0.01377,0.1525893 0.263279,0.1555549 0.144807,0.00196 0.349575,0.03293 0.455039,0.069283 0.160698,0.05545 0.199076,0.1015517 0.236917,0.284668 0.02484,0.1201769 0.03832,1.5971536 0.02996,3.2821764 -0.01343,2.7047289 -0.02546,3.0739209 -0.102758,3.1511969 -0.05523,0.05519 -0.234268,0.09982 -0.484997,0.120845 -0.382727,0.03208 -0.397443,0.03869 -0.397449,0.177709 l -6e-6,0.144386 h 1.496559 1.496562 l 1.3e-5,-0.144412 z"
         id="path970" />
      <path
         id="path966"
         style="fill:#000000;stroke-width:0.0554283"
         d="m 62.764012,3.1338838 -0.139381,0.031462 c -0.07671,0.017217 -0.323566,0.081147 -0.548397,0.1420887 -0.224831,0.06095 -0.567526,0.126917 -0.761869,0.1468261 -0.343431,0.035155 -0.353531,0.040684 -0.353531,0.1948652 0,0.1579706 0.0014,0.1586652 0.353531,0.1586652 0.261015,0 0.373481,0.024082 0.42965,0.091682 0.110796,0.1333622 0.147774,2.2917353 0.03924,2.2916955 -0.04085,-1.21e-5 -0.210413,-0.051751 -0.376875,-0.1150241 -0.45161,-0.1716525 -0.954681,-0.194967 -1.36845,-0.063602 -0.459554,0.1459116 -1.261182,0.5892982 -1.555198,0.8603166 -0.704394,0.6492837 -0.875984,2.1365828 -0.364696,3.161821 0.445264,0.892846 1.443298,1.319213 2.394879,1.023042 0.104255,-0.03247 0.426837,-0.267971 0.716873,-0.523023 0.290049,-0.25505 0.541633,-0.463748 0.558884,-0.463819 0.01729,-5.2e-5 0.02349,0.218311 0.01387,0.485133 l -0.01725,0.485133 h 0.890426 0.890425 v -0.147502 c -2.6e-5,-0.130993 -0.02665,-0.151766 -0.235799,-0.183701 -0.368165,-0.05624 -0.538521,-0.141071 -0.575124,-0.286885 -0.01833,-0.07315 -0.02383,-1.7433245 -0.01218,-3.7112338 z m -2.495356,3.2457223 c 0.448337,0.00312 0.930778,0.1939869 1.343419,0.5774919 l 0.235801,0.2188847 -0.0014,0.602187 c -0.0039,1.7247609 -0.210309,2.2845713 -0.956057,2.5961713 -0.297852,0.124446 -0.848624,0.109995 -1.130962,-0.02977 C 59.422678,10.177853 59.058458,9.7611849 58.91201,9.375319 58.654177,8.6959931 58.707091,7.6454379 59.027374,7.0846386 59.296365,6.6136538 59.76051,6.3760691 60.268623,6.3796061 Z" />
      <path
         style="fill:#000000;stroke-width:0.0554283"
         d="m 53.11589,11.100945 c 0.322566,-0.134776 0.472052,-0.626553 0.275679,-0.906914 -0.102756,-0.14671 -0.360504,-0.2891587 -0.523202,-0.2891587 -0.187784,0 -0.435051,0.1555947 -0.52563,0.3307567 -0.169218,0.327234 -0.05702,0.695398 0.25947,0.851372 0.226036,0.111398 0.277126,0.112786 0.513683,0.01394 z"
         id="path964" />
      <path
         id="path960"
         style="fill:#000000;stroke-width:0.0554283"
         d="m 42.605958,5.9205229 c -0.441777,-0.00497 -0.911837,0.136241 -1.433071,0.4252529 l -0.470924,0.2611729 -0.01623,0.3948055 c -0.01564,0.3830633 -0.01211,0.3957442 0.122806,0.4215305 0.127385,0.024354 0.15088,-0.00464 0.280457,-0.3437196 0.163777,-0.4286097 0.318761,-0.5356938 0.854564,-0.5917006 0.809186,-0.084577 1.393728,0.3733616 1.454723,1.1397584 l 0.01962,0.2449342 -0.83156,0.1745663 C 41.45837,8.2843687 41.16555,8.378091 40.886688,8.590785 c -0.387156,0.2952926 -0.559272,0.6294075 -0.588993,1.1428018 -0.04779,0.8251142 0.261178,1.2634212 0.980753,1.3924732 0.278626,0.04995 0.747676,0.02015 0.89144,-0.05684 0.05002,-0.02677 0.351364,-0.252588 0.669512,-0.502048 l 0.578505,-0.453671 0.0159,0.463821 0.01555,0.463819 h 0.80179 0.801788 v -0.179979 c -2.6e-5,-0.177833 -0.0032,-0.180158 -0.263203,-0.180995 -0.4484,-0.0014 -0.423161,0.09407 -0.468557,-1.7564932 C 44.29892,8.0153179 44.252948,7.1559627 44.21901,7.0139328 44.125577,6.6228238 43.882089,6.3327189 43.480485,6.1350096 43.197352,5.9956247 42.908229,5.9239282 42.60596,5.9205229 Z m 0.720934,2.3218051 c 0.07864,3.465e-4 0.09279,0.094219 0.105552,0.6952217 l 0.01488,0.6948839 -0.275719,0.2916205 c -0.48313,0.5108359 -1.130512,0.7181079 -1.55114,0.4966359 -0.316707,-0.166749 -0.419927,-0.359376 -0.419503,-0.7835207 5.2e-4,-0.50834 0.139706,-0.727701 0.601174,-0.9479367 0.323286,-0.1542916 1.324423,-0.447684 1.524751,-0.4469046 z" />
      <path
         style="fill:#000000;stroke-width:0.0554283"
         d="m 30.079673,11.121633 c 0.485048,-0.0787 0.819307,-0.262861 1.222495,-0.67352 l 0.34292,-0.349277 -0.03705,0.471143 -0.03705,0.471143 h 0.893337 0.893329 l -1.9e-5,-0.152432 c -2.7e-5,-0.143457 -0.01453,-0.152426 -0.246848,-0.152426 -0.321035,0 -0.523287,-0.09579 -0.566593,-0.268354 -0.01912,-0.07616 -0.02088,-1.1319547 -0.0039,-2.3461948 0.02187,-1.5641257 0.01342,-2.2077139 -0.029,-2.2077139 -0.03293,0 -0.240714,0.06239 -0.461696,0.1386777 -0.220976,0.076268 -0.609467,0.1707694 -0.863307,0.209997 -0.439922,0.06798 -0.462344,0.07835 -0.479057,0.2216041 -0.01748,0.1495517 -0.01578,0.1502914 0.33583,0.1502914 0.591038,0 0.568557,-0.057349 0.568557,1.4504825 0,0.7112674 -0.01971,1.3639619 -0.04386,1.4504301 -0.05872,0.2106385 -0.509853,0.6852249 -0.784603,0.8253949 -0.121794,0.06213 -0.371837,0.124301 -0.555647,0.138141 -0.277918,0.02095 -0.376079,0.0026 -0.582907,-0.108452 -0.442652,-0.237826 -0.469402,-0.33272 -0.488439,-1.7328654 -0.0091,-0.6706847 0.0065,-1.5436806 0.03476,-1.9399886 0.02822,-0.3963146 0.03208,-0.7416766 0.0084,-0.7674704 -0.02357,-0.025794 -0.228937,0.017283 -0.456335,0.095797 -0.227391,0.078488 -0.597886,0.1712932 -0.823319,0.2062392 -0.555327,0.086082 -0.548446,0.083051 -0.548446,0.2419773 0,0.1354633 0.01224,0.1403143 0.353499,0.1403143 0.237794,0 0.374881,0.025794 0.418829,0.078723 0.04687,0.056498 0.06435,0.5106453 0.06193,1.6071504 -0.002,0.881238 0.02134,1.6400145 0.05499,1.7919752 0.115909,0.52294 0.512374,0.90023 1.058882,1.00768 0.335234,0.06591 0.363103,0.06597 0.760203,0.0013 z"
         id="path958" />
      <path
         style="fill:#ffae00;fill-opacity:1;stroke-width:0.0171898"
         d="M 6.2445665,13.295363 C 6.524335,13.212312 6.8207392,13.001314 7.2532914,12.577287 L 7.4982462,12.337162 V 10.743767 9.1503708 L 8.1299724,8.542894 C 8.4774215,8.2087857 8.8229648,7.8760325 8.8978461,7.8034498 l 0.1361474,-0.1319674 0.2248388,0.200956 c 0.3055604,0.2731001 0.4372449,0.3820102 1.1444947,0.9465671 0.73437,0.5862133 0.98892,0.8028027 1.198617,1.0198962 0.325004,0.3364713 0.403519,0.5453553 0.260462,0.6929563 -0.108733,0.112184 -0.357388,0.175175 -0.759761,0.192465 l -0.271906,0.01172 -0.133132,-0.137519 c -0.07322,-0.07564 -0.291741,-0.32317 -0.485596,-0.550077 C 9.5947848,9.3259912 9.3609568,9.1493953 9.0448943,9.1670189 8.902705,9.1749404 8.7730794,9.2313725 8.6440619,9.3415199 l -0.066066,0.056432 0.196865,0.3510445 c 0.1082764,0.1930738 0.3343296,0.6024496 0.5023409,0.9097166 0.3551145,0.649447 0.4732338,0.848734 0.8140982,1.373513 l 0.250139,0.3851 1.384643,-0.0106 c 0.761553,-0.0059 1.566425,-0.01866 1.788603,-0.02848 1.024593,-0.0453 1.592387,-0.124079 1.86891,-0.25932 0.419201,-0.205021 0.318772,-0.51983 -0.383641,-1.202606 C 14.720245,10.644428 14.387692,10.352696 13.411546,9.5228949 12.004597,8.3268742 10.951755,7.3930927 10.288101,6.7526666 L 10.14709,6.6165944 10.365455,6.4061654 C 11.171847,5.6290977 12.045344,4.8448089 13.660798,3.447374 14.884185,2.3890883 15.275074,1.9962565 15.427469,1.6719223 15.492673,1.533153 15.489557,1.3961839 15.419089,1.3037976 15.266098,1.1032148 14.742412,0.98883171 13.703775,0.9291328 13.280525,0.90477926 11.904729,0.87846173 11.038949,0.87806893 L 10.307978,0.87766303 10.177862,1.0108808 C 9.4938964,1.711176 8.8496457,2.5830852 8.4980899,3.284238 8.2400386,3.7989029 8.1851358,4.1293124 8.3435759,4.2141046 c 0.022586,0.012111 0.077055,0.01617 0.1395392,0.01054 C 8.8186774,4.1942028 9.606324,3.6264772 10.616019,2.6872293 l 0.324425,-0.3017875 0.182675,0.00995 c 0.100472,0.00524 0.22522,0.018985 0.27722,0.030049 0.143947,0.030573 0.301704,0.1117906 0.356366,0.1834568 0.04292,0.056301 0.04759,0.076033 0.04759,0.2012571 0,0.1272145 -0.0059,0.1511033 -0.07028,0.2849692 -0.03865,0.08036 -0.129229,0.2243144 -0.201279,0.319889 -0.125046,0.165879 -0.537087,0.6220889 -0.641568,0.7103443 -0.02723,0.022979 -0.138463,0.1245304 -0.247188,0.2256172 C 10.350738,4.6236369 10.040718,4.8918335 9.4750774,5.3621907 9.1961724,5.5941124 8.7861956,5.9350357 8.5640167,6.1197953 8.3418384,6.3045483 8.0375514,6.5640183 7.8878249,6.696385 7.7380978,6.8287517 7.5853232,6.9631938 7.5483254,6.9951414 l -0.067268,0.058069 V 3.9571813 0.86116548 L 7.3650264,0.76530942 C 7.114509,0.55842871 6.8270377,0.38276898 6.604377,0.30059542 6.4207408,0.2328245 6.2077154,0.23070338 6.070006,0.2953581 5.8528778,0.39717816 5.7020299,0.63708672 5.5996776,1.0433719 5.4442332,1.6604002 5.4159825,2.403864 5.4518136,4.9345504 c 0.023574,1.665062 0.01708,2.1347646 -0.054069,3.910681 -0.04455,1.1119879 -0.053905,2.8009716 -0.017473,3.1543336 0.1079588,1.047038 0.3715087,1.442194 0.8642986,1.295903 z"
         id="path956-0" />
    </g>
    <text
       xml:space="preserve"
       style="font-style:normal;font-variant:normal;font-weight:bold;font-stretch:normal;font-size:4.6858px;line-height:1.25;font-family:Calibri;-inkscape-font-specification:'Calibri Bold';fill:#666666;stroke-width:0.400245"
       x="128.26617"
       y="195.34123"
       id="text113790"><tspan
         sodipodi:role="line"
         id="tspan113788"
         style="font-style:normal;font-variant:normal;font-weight:bold;font-stretch:normal;font-size:4.6858px;font-family:Calibri;-inkscape-font-specification:'Calibri Bold';fill:#666666;stroke-width:0.400245"
         x="128.26617"
         y="195.34123" /></text>
    <text
       xml:space="preserve"
       style="font-style:normal;font-variant:normal;font-weight:normal;font-stretch:normal;font-size:4.6858px;line-height:1.25;font-family:Calibri;-inkscape-font-specification:Calibri;fill:#666666;stroke-width:0.400245"
       x="123.1857"
       y="189.99754"
       id="text113794"><tspan
         sodipodi:role="line"
         id="tspan113792"
         style="font-style:normal;font-variant:normal;font-weight:normal;font-stretch:normal;font-size:4.6858px;font-family:Calibri;-inkscape-font-specification:Calibri;fill:#666666;stroke-width:0.400245"
         x="123.1857"
         y="189.99754" /></text>
    <g
       id="g166258"
       transform="matrix(-0.74460356,0,0,-0.74460356,297,210)">
      <path
         id="path166252"
         style="fill:#003b72;fill-opacity:1;stroke:none;stroke-width:0.173897px;stroke-linecap:butt;stroke-linejoin:miter;stroke-opacity:1"
         d="M -1.1204e-6,52.844533 62.452711,4.212776e-6 H -1.1203999e-6 Z" />
      <path
         id="path166254"
         style="fill:url(#linearGradient166260);fill-opacity:1;stroke:none;stroke-width:0.556418;stroke-linecap:round;stroke-linejoin:round"
         d="M -1.1204e-6,66.892889 71.266137,4.212776e-6 H 51.244121 L -1.1203999e-6,48.099367 Z" />
      <path
         id="path166256"
         style="fill:#003b72;fill-opacity:1;stroke-width:0.349161;stroke-linecap:round;stroke-linejoin:round"
         d="M 15.821642,60.610272 15.460949,45.486993 51.911242,11.564967 52.271928,26.68824 Z"
         sodipodi:nodetypes="ccccc" />
    </g>
    <g
       id="g160118"
       style="fill:#fff5e0;fill-opacity:1;stroke:none">
      <path
         id="rect159941"
         style="fill:#fff5e0;fill-opacity:1;stroke:none;stroke-width:2.25318;stroke-linecap:round;stroke-linejoin:round;stroke-miterlimit:4;stroke-dasharray:none;stroke-opacity:1"
         d="M 1122.5195 391.12109 L 648.67383 793.70117 L 834.74805 793.70117 L 1122.5195 549.21094 L 1122.5195 391.12109 z "
         transform="scale(0.26458333)" />
      <circle
         style="fill:#fff5e0;fill-opacity:1;stroke:none;stroke-width:0.499999;stroke-linecap:round;stroke-linejoin:round;stroke-miterlimit:4;stroke-dasharray:none;stroke-opacity:1"
         id="path159837"
         cx="287.10144"
         cy="-77.620483"
         r="20.635899"
         transform="rotate(49.648864)" />
    </g>
    <g
       id="g159813"
       transform="matrix(0.70275376,0.3580559,-0.3580559,0.70275376,131.17836,-36.19312)">
      <path
         sodipodi:type="star"
         style="fill:#d3bc5f;fill-opacity:1;stroke:none;stroke-width:3.02362;stroke-linecap:round;stroke-linejoin:round;stroke-miterlimit:4;stroke-dasharray:none;stroke-opacity:1"
         id="path139966"
         inkscape:flatsided="false"
         sodipodi:sides="50"
         sodipodi:cx="944.93011"
         sodipodi:cy="614.20459"
         sodipodi:r1="154.79591"
         sodipodi:r2="147.05611"
         sodipodi:arg1="0.78539816"
         sodipodi:arg2="0.84823001"
         inkscape:rounded="0"
         inkscape:randomized="0"
         d="m 1054.3874,723.66183 -12.2073,0.85117 -2.3745,12.00436 -12.2177,-0.68552 -3.8603,11.6121 -12.0354,-2.2114 -5.2852,11.03672 -11.6634,-3.70241 -6.6268,10.28728 -11.10739,-5.13502 -7.86388,9.3756 -10.37621,-6.48665 -8.97695,8.31606 -9.4814,-7.73599 -9.94844,7.12538 -8.43706,-8.86332 -10.76304,5.82233 -7.25966,-9.85088 -11.4079,4.42745 -5.96778,-10.68308 -11.87285,2.96275 -4.58177,-11.3468 -12.15056,1.45132 -3.12352,-11.83157 -12.23665,-0.083 -1.61599,-12.12976 -12.12976,-1.616 -0.083,-12.23664 -11.83158,-3.12352 1.45132,-12.15056 -11.34679,-4.58178 2.96274,-11.87285 -10.68307,-5.96777 4.42744,-11.4079 -9.85087,-7.25967 5.82232,-10.76304 -8.86332,-8.43706 7.12538,-9.94844 -7.73599,-9.4814 8.31607,-8.97694 -6.48665,-10.37622 9.3756,-7.86387 -5.13502,-11.10739 10.28727,-6.6268 -3.7024,-11.66339 11.03671,-5.2852 -2.21139,-12.03546 11.6121,-3.86026 -0.68552,-12.21772 12.00435,-2.37444 0.85117,-12.20729 12.2073,-0.85117 2.37444,-12.00436 12.21771,0.68552 3.86026,-11.6121 12.03546,2.2114 5.2852,-11.03672 11.66339,3.70241 6.6268,-10.28728 11.10739,5.13502 7.86388,-9.3756 10.37621,6.48665 8.97695,-8.31606 9.4814,7.73599 9.94844,-7.12538 8.43706,8.86332 10.76304,-5.82233 7.25966,9.85088 11.4079,-4.42745 5.96774,10.68308 11.8729,-2.96275 4.5818,11.3468 12.1505,-1.45132 3.1235,11.83157 12.2367,0.083 1.616,12.12976 12.1297,1.616 0.083,12.23664 11.8316,3.12352 -1.4513,12.15056 11.3468,4.58178 -2.9628,11.87285 10.6831,5.96777 -4.4274,11.4079 9.8508,7.25967 -5.8223,10.76304 8.8633,8.43706 -7.1253,9.94843 7.7359,9.48141 -8.316,8.97694 6.4866,10.37622 -9.3756,7.86387 5.1351,11.10739 -10.2873,6.6268 3.7024,11.66339 -11.0367,5.2852 2.2114,12.03546 -11.6121,3.86026 0.6855,12.21772 -12.0044,2.37444 z"
         transform="matrix(0.14651253,0,0,0.14651253,108.03293,75.760691)"
         inkscape:transform-center-x="3.74193e-06"
         inkscape:transform-center-y="-2.3338719e-06" />
      <circle
         style="fill:none;fill-opacity:1;stroke:#a0892c;stroke-width:0.479309;stroke-linecap:round;stroke-linejoin:round;stroke-miterlimit:4;stroke-dasharray:none;stroke-opacity:1"
         id="path145003"
         cx="246.47704"
         cy="165.74936"
         r="19.065363" />
      <g
         id="g159800"
         transform="translate(0.62507667,-1.3766943)">
        <text
           xml:space="preserve"
           style="font-style:italic;font-size:6.71094px;line-height:1.25;font-family:sans-serif;-inkscape-font-specification:'sans-serif Italic';fill:#a0892c;fill-opacity:1;stroke-width:0.419433"
           x="234.77792"
           y="160.05423"
           id="text147034"><tspan
             sodipodi:role="line"
             id="tspan147032"
             style="font-style:normal;font-variant:normal;font-weight:normal;font-stretch:normal;font-family:Calibri;-inkscape-font-specification:Calibri;fill:#a0892c;fill-opacity:1;stroke-width:0.419433"
             x="234.77792"
             y="160.05423">COURSE</tspan></text>
        <text
           xml:space="preserve"
           style="font-style:italic;font-size:6.71094px;line-height:1.25;font-family:sans-serif;-inkscape-font-specification:'sans-serif Italic';fill:#a0892c;fill-opacity:1;stroke-width:0.419433"
           x="230.9637"
           y="167.73048"
           id="text152080"><tspan
             sodipodi:role="line"
             id="tspan152078"
             style="font-style:normal;font-variant:normal;font-weight:normal;font-stretch:normal;font-family:Calibri;-inkscape-font-specification:Calibri;fill:#a0892c;fill-opacity:1;stroke-width:0.419433"
             x="230.9637"
             y="167.73048">COMPLETE</tspan></text>
        <g
           id="g159790"
           transform="translate(-0.39071173)">
          <path
             sodipodi:type="star"
             style="fill:#a0892c;fill-opacity:1;stroke:none;stroke-width:1.88976;stroke-linecap:round;stroke-linejoin:round;stroke-miterlimit:4;stroke-dasharray:none;stroke-opacity:1"
             id="path153342"
             inkscape:flatsided="false"
             sodipodi:sides="5"
             sodipodi:cx="921.30682"
             sodipodi:cy="664.20709"
             sodipodi:r1="14.223081"
             sodipodi:r2="7.1115403"
             sodipodi:arg1="0.78539816"
             sodipodi:arg2="1.4137167"
             inkscape:rounded="0"
             inkscape:randomized="0"
             d="m 931.36406,674.26433 -8.94475,-3.03325 -7.56963,5.64887 0.12071,-9.44429 -7.71154,-5.45355 9.01936,-2.80364 2.80363,-9.01935 5.45356,7.71154 9.44428,-0.12071 -5.64887,7.56963 z"
             transform="matrix(0.28369605,0.04359701,-0.04359701,0.28369605,13.834798,-53.412529)"
             inkscape:transform-center-x="-0.074958648"
             inkscape:transform-center-y="-0.27423624" />
          <path
             sodipodi:type="star"
             style="fill:#a0892c;fill-opacity:1;stroke:none;stroke-width:1.88976;stroke-linecap:round;stroke-linejoin:round;stroke-miterlimit:4;stroke-dasharray:none;stroke-opacity:1"
             id="path159783"
             inkscape:flatsided="false"
             sodipodi:sides="5"
             sodipodi:cx="921.30682"
             sodipodi:cy="664.20709"
             sodipodi:r1="14.223081"
             sodipodi:r2="7.1115403"
             sodipodi:arg1="0.78539816"
             sodipodi:arg2="1.4137167"
             inkscape:rounded="0"
             inkscape:randomized="0"
             d="m 931.36406,674.26433 -8.94475,-3.03325 -7.56963,5.64887 0.12071,-9.44429 -7.71154,-5.45355 9.01936,-2.80364 2.80363,-9.01935 5.45356,7.71154 9.44428,-0.12071 -5.64887,7.56963 z"
             transform="matrix(0.20948107,0.03219202,-0.03219202,0.20948107,66.481323,5.3211363)"
             inkscape:transform-center-x="-0.055351008"
             inkscape:transform-center-y="-0.20249139" />
          <path
             sodipodi:type="star"
             style="fill:#a0892c;fill-opacity:1;stroke:none;stroke-width:1.88976;stroke-linecap:round;stroke-linejoin:round;stroke-miterlimit:4;stroke-dasharray:none;stroke-opacity:1"
             id="path159785"
             inkscape:flatsided="false"
             sodipodi:sides="5"
             sodipodi:cx="921.30682"
             sodipodi:cy="664.20709"
             sodipodi:r1="14.223081"
             sodipodi:r2="7.1115403"
             sodipodi:arg1="0.78539816"
             sodipodi:arg2="1.4137167"
             inkscape:rounded="0"
             inkscape:randomized="0"
             d="m 931.36406,674.26433 -8.94475,-3.03325 -7.56963,5.64887 0.12071,-9.44429 -7.71154,-5.45355 9.01936,-2.80364 2.80363,-9.01935 5.45356,7.71154 9.44428,-0.12071 -5.64887,7.56963 z"
             transform="matrix(0.20948107,0.03219202,-0.03219202,0.20948107,82.784237,5.3211363)"
             inkscape:transform-center-x="-0.055351008"
             inkscape:transform-center-y="-0.20249139" />
        </g>
      </g>
    </g>
    <rect
       style="fill:none;fill-opacity:1;stroke:#b17900;stroke-width:0.8;stroke-linecap:round;stroke-linejoin:round;stroke-miterlimit:4;stroke-dasharray:none;stroke-opacity:1"
       id="rect7180"
       width="289.37103"
       height="202.24706"
       x="3.8144836"
       y="3.8764725" />
  </g>
</svg>
