<?xml version="1.0" encoding="UTF-8" standalone="no"?>
<!-- Created with Inkscape (http://www.inkscape.org/) -->

<svg
   width="12mm"
   height="15mm"
   viewBox="0 0 12 15"
   version="1.1"
   id="svg859"
   inkscape:version="1.1.1 (3bf5ae0d25, 2021-09-20)"
   sodipodi:docname="favicon2.svg"
   xmlns:inkscape="http://www.inkscape.org/namespaces/inkscape"
   xmlns:sodipodi="http://sodipodi.sourceforge.net/DTD/sodipodi-0.dtd"
   xmlns="http://www.w3.org/2000/svg"
   xmlns:svg="http://www.w3.org/2000/svg">
  <sodipodi:namedview
     id="namedview861"
     pagecolor="#ffffff"
     bordercolor="#666666"
     borderopacity="1.0"
     inkscape:pageshadow="2"
     inkscape:pageopacity="0.0"
     inkscape:pagecheckerboard="0"
     inkscape:document-units="mm"
     showgrid="false"
     inkscape:zoom="0.68595679"
     inkscape:cx="-122.45669"
     inkscape:cy="158.90214"
     inkscape:window-width="1920"
     inkscape:window-height="974"
     inkscape:window-x="-11"
     inkscape:window-y="-11"
     inkscape:window-maximized="1"
     inkscape:current-layer="layer1" />
  <defs
     id="defs856" />
  <g
     inkscape:label="Layer 1"
     inkscape:groupmode="layer"
     id="layer1">
    <path
       style="fill:#ffae00;fill-opacity:1;stroke-width:0.0171898"
       d="m 1.7494856,14.008846 c 0.27977,-0.0831 0.57617,-0.29405 1.00873,-0.71808 l 0.24495,-0.24012 v -1.5934 -1.5933904 l 0.63173,-0.60748 c 0.34745,-0.33411 0.69299,-0.66686 0.76787,-0.73944 l 0.13615,-0.13197 0.22484,0.20096 c 0.30556,0.2731 0.43724,0.38201 1.14449,0.94656 0.73437,0.5862204 0.98892,0.8028104 1.19862,1.0199004 0.325,0.33647 0.40352,0.54535 0.26046,0.69296 -0.10873,0.11218 -0.35739,0.17517 -0.75976,0.19246 l -0.27191,0.0117 -0.13313,-0.13752 c -0.0732,-0.0756 -0.29174,-0.32317 -0.48559,-0.55008 -0.61723,-0.72245 -0.85106,-0.8990504 -1.16712,-0.8814204 -0.14219,0.008 -0.27182,0.0643 -0.40083,0.1745004 l -0.0661,0.0564 0.19687,0.35104 c 0.10827,0.19308 0.33432,0.60245 0.50234,0.90972 0.35511,0.64945 0.47323,0.84873 0.81409,1.37351 l 0.25014,0.3851 1.38465,-0.0106 c 0.76155,-0.006 1.56642,-0.0187 1.7886,-0.0285 1.0245904,-0.0453 1.5923904,-0.12408 1.8689104,-0.25932 0.4192,-0.20502 0.31877,-0.51983 -0.38364,-1.2026 -0.27971,-0.27189 -0.6122604,-0.56363 -1.5884104,-1.39343 -1.40695,-1.1960204 -2.45979,-2.1298004 -3.12344,-2.7702304 l -0.14102,-0.13607 0.21837,-0.21043 c 0.80639,-0.77706 1.67989,-1.56135 3.29534,-2.95879 1.2233904,-1.05828 1.6142804,-1.45112 1.7666704,-1.77545 0.0652,-0.13877 0.0621,-0.27574 -0.008,-0.36812 -0.15299,-0.20059 -0.67667,-0.31497 -1.7153104,-0.37467 -0.42325,-0.0243 -1.79905,-0.0507 -2.66483,-0.0511 l -0.73097,-4.1e-4 -0.13011,0.13322 c -0.68397,0.70029 -1.32822,1.5722 -1.67978,2.27336 -0.25805,0.51466 -0.31295,0.84507 -0.15451,0.92986 0.0226,0.0121 0.0771,0.0162 0.13954,0.0105 0.33556,-0.0304 1.12321,-0.59816 2.1329,-1.53741 l 0.32443,-0.30179 0.18267,0.01 c 0.10048,0.005 0.22522,0.019 0.27722,0.03 0.14395,0.0306 0.30171,0.11179 0.35637,0.18346 0.0429,0.0563 0.0476,0.076 0.0476,0.20125 0,0.12722 -0.006,0.15111 -0.0703,0.28497 -0.0387,0.0804 -0.12923,0.22432 -0.20128,0.31989 -0.12505,0.16588 -0.53709,0.62209 -0.64157,0.71035 -0.0272,0.023 -0.13846,0.12453 -0.24719,0.22561 -0.29324,0.27266 -0.60326,0.54086 -1.1689,1.01122 -0.2789,0.23192 -0.68888,0.57284 -0.91106,0.7576 -0.22218,0.18476 -0.52646,0.44423 -0.67619,0.57659 -0.14973,0.13237 -0.3025,0.26681 -0.3395,0.29876 l -0.0673,0.0581 v -3.09603 -3.09602 l -0.11603,-0.0959 c -0.25052,-0.20688 -0.53799,-0.38254 -0.76065,-0.46472 -0.18363,-0.0678 -0.39666,-0.0699 -0.53437,-0.005 -0.21713,0.10182 -0.36798,0.34172 -0.47033,0.74801 -0.15544303,0.61703 -0.18369303,1.36049 -0.14786203,3.89118 0.02357,1.66506 0.01708,2.13476 -0.05407,3.91068 -0.04455,1.1119904 -0.05391,2.8009704 -0.01747,3.1543304 0.107959,1.04704 0.37150203,1.4422 0.86429203,1.29591 z"
       id="path956" />
  </g>
</svg>
