<?xml version="1.0" encoding="UTF-8" standalone="no"?>
<!-- Created with Inkscape (http://www.inkscape.org/) -->

<svg
   width="35mm"
   height="35mm"
   viewBox="0 0 35 35"
   version="1.1"
   id="svg867"
   inkscape:version="1.1.1 (3bf5ae0d25, 2021-09-20)"
   sodipodi:docname="iconlogo.svg"
   xmlns:inkscape="http://www.inkscape.org/namespaces/inkscape"
   xmlns:sodipodi="http://sodipodi.sourceforge.net/DTD/sodipodi-0.dtd"
   xmlns="http://www.w3.org/2000/svg"
   xmlns:svg="http://www.w3.org/2000/svg">
  <sodipodi:namedview
     id="namedview869"
     pagecolor="#ffffff"
     bordercolor="#666666"
     borderopacity="1.0"
     inkscape:pageshadow="2"
     inkscape:pageopacity="0.0"
     inkscape:pagecheckerboard="0"
     inkscape:document-units="mm"
     showgrid="false"
     inkscape:zoom="1.9401788"
     inkscape:cx="65.457885"
     inkscape:cy="138.64702"
     inkscape:window-width="1920"
     inkscape:window-height="974"
     inkscape:window-x="-11"
     inkscape:window-y="-11"
     inkscape:window-maximized="1"
     inkscape:current-layer="layer1" />
  <defs
     id="defs864" />
  <g
     inkscape:label="Layer 1"
     inkscape:groupmode="layer"
     id="layer1">
    <path
       style="fill:#ffae00;stroke-width:0.0313867;fill-opacity:1"
       d="m 9.7390493,29.384113 c 0.5108297,-0.15173 1.0520397,-0.5369 1.8418297,-1.31111 l 0.44725,-0.43845 v -2.90938 -2.90936 l 1.15347,-1.10919 c 0.634407,-0.61005 1.265317,-1.21761 1.402047,-1.35014 l 0.24859,-0.24096 0.41054,0.36693 c 0.55792,0.49865 0.79835,0.69751 2.08971,1.72832 1.340881,1.07037 1.805661,1.46584 2.188551,1.86222 0.59341,0.61437 0.73678,0.99576 0.47557,1.26528 -0.19853,0.20483 -0.65255,0.31984 -1.38724,0.35141 l -0.496461,0.0214 -0.2431,-0.2511 c -0.13365,-0.13803 -0.53268,-0.59007 -0.88663,-1.00436 -1.127,-1.31914 -1.55394,-1.64159 -2.13104,-1.6094 -0.25962,0.0146 -0.49629,0.11758 -0.73187,0.31861 l -0.12069,0.10298 0.35946,0.64097 c 0.19769,0.35254 0.61045,1.10001 0.91722,1.66105 0.64839,1.18582 0.86407,1.54969 1.48646,2.50788 l 0.45671,0.70315 2.528221,-0.0194 c 1.39051,-0.011 2.86011,-0.0341 3.26579,-0.052 1.87079,-0.0827 2.90753,-0.22654 3.41242,-0.47349 0.76542,-0.37435 0.58204,-0.94916 -0.70048,-2.19584 -0.51072,-0.49642 -1.11792,-1.02911 -2.90026,-2.54424 -2.56894,-2.1838 -4.49131,-3.88878 -5.703061,-5.05813 l -0.25747,-0.24845 0.3987,-0.38422 c 1.472381,-1.41883 3.067291,-2.85086 6.016931,-5.402431 2.23378,-1.9323096 2.9475,-2.6495896 3.22575,-3.2417796 0.11904,-0.25338 0.11338,-0.50347 -0.0146,-0.67215 -0.27934,-0.36626 -1.23553,-0.5751 -3.13197,-0.68411 -0.77281,-0.0444 -3.28485,-0.0926 -4.86567,-0.0933 l -1.334691,-7.5e-4 -0.23757,0.24325 c -1.24885,1.27865 -2.42518,2.87067 -3.06707,4.1509096 -0.47119,0.93971 -0.571427,1.543 -0.28214,1.69782 0.0413,0.0221 0.14078,0.0296 0.25478,0.0192 0.6127,-0.0555 2.05086,-1.09217 3.89447,-2.80714 l 0.592351,-0.5510396 0.33354,0.0183 c 0.18346,0.009 0.41124,0.0347 0.50617,0.0548 0.26284,0.0559 0.55089,0.20412 0.65069,0.33498 0.0783,0.1028 0.0869,0.1387696 0.0869,0.3674596 0,0.23229 -0.011,0.27591 -0.12836,0.52032 -0.0707,0.14681 -0.23596,0.40959 -0.36752,0.58409 -0.22833,0.30288 -0.98067,1.13587 -1.17144,1.29702 -0.0497,0.042 -0.252811,0.22738 -0.451341,0.41194 -0.53544,0.497851 -1.1015,0.987551 -2.1343,1.846381 -0.50924,0.42346 -1.25782,1.04594 -1.6635,1.38329 -0.40567,0.33735 -0.961257,0.81111 -1.234647,1.05279 -0.27339,0.2417 -0.55233,0.48718 -0.61989,0.5455 l -0.12288,0.10609 V 12.333522 6.6805224 l -0.21186,-0.1749199 c -0.45742,-0.37774 -0.98231,-0.698476 -1.38886,-0.848527 -0.33529,-0.123796 -0.7242597,-0.12763 -0.9756997,-0.0091 -0.39646,0.185912 -0.67188,0.623944 -0.85877,1.3657869 -0.28382,1.12663 -0.3354,2.4841 -0.26998,7.1048706 0.0431,3.04022 0.0312,3.89785 -0.0988,7.14047 -0.0812,2.03038 -0.0984,5.11427 -0.0319,5.75948 0.19712,1.91177 0.67833,2.6333 1.57811,2.36619 z"
       id="path956" />
  </g>
</svg>
