<svg width="883" height="779" viewBox="0 0 883 779" fill="none" xmlns="http://www.w3.org/2000/svg">
<g clip-path="url(#clip0_1_2)">
<path d="M342.362 20.0599L345.831 14.6979C344.803 11.8557 343.614 9.07381 342.272 6.36544L340.028 8.17749L341.805 5.43215C340.112 2.09965 338.78 0 338.78 0C338.78 0 331.822 10.9651 329.497 22.5747L333.949 29.4554L329.02 25.4744C328.845 26.8268 328.754 28.1889 328.75 29.5526C328.75 43.3022 333.24 54.4484 338.78 54.4484C344.319 54.4484 348.81 43.3022 348.81 29.5526C348.706 25.1781 347.932 20.8454 346.515 16.7053L342.362 20.0599Z" fill="#E6E6E6"/>
<path d="M366.92 31.9801L373.165 30.6419C374.447 27.9046 375.574 25.0972 376.54 22.233L373.672 21.9279L376.869 21.2427C378.029 17.6892 378.571 15.2626 378.571 15.2626C378.571 15.2626 365.898 18.0959 356.045 24.6612L354.327 32.6748L353.657 26.3747C352.577 27.2068 351.55 28.1061 350.582 29.0672C340.86 38.7896 336.154 49.8465 340.071 53.7635C343.988 57.6804 355.044 52.9741 364.767 43.2517C367.787 40.085 370.303 36.4741 372.229 32.5449L366.92 31.9801Z" fill="#E6E6E6"/>
<path d="M369.201 85.184C354.72 86.1103 338.941 85.1301 322.155 85.184V46.7521C336.946 49.0548 352.72 48.8183 369.201 46.7521V85.184Z" fill="#E6E6E6"/>
<path d="M472.802 115.152L475.064 111.655C474.393 109.801 473.618 107.987 472.743 106.221L471.28 107.402L472.438 105.612C471.334 103.439 470.466 102.07 470.466 102.07C467.678 106.624 465.635 111.594 464.412 116.791L467.315 121.279L464.101 118.682C463.986 119.564 463.928 120.453 463.925 121.342C463.925 130.309 466.853 137.578 470.466 137.578C474.078 137.578 477.007 130.309 477.007 121.342C476.939 118.489 476.434 115.664 475.51 112.964L472.802 115.152Z" fill="#E6E6E6"/>
<path d="M488.817 122.925L492.889 122.052C493.726 120.267 494.46 118.436 495.09 116.569L493.22 116.37L495.305 115.923C496.061 113.605 496.415 112.023 496.415 112.023C491.224 113.272 486.265 115.341 481.725 118.152L480.605 123.378L480.168 119.27C479.463 119.812 478.793 120.399 478.162 121.025C471.822 127.366 468.753 134.576 471.307 137.131C473.862 139.685 481.072 136.616 487.413 130.276C489.382 128.211 491.023 125.856 492.279 123.293L488.817 122.925Z" fill="#E6E6E6"/>
<path d="M490.304 157.622C480.861 158.226 470.571 157.586 459.624 157.622V132.559C469.801 133.984 480.127 133.984 490.304 132.559V157.622Z" fill="#E6E6E6"/>
<path d="M484.473 231.898C476.134 232.431 467.048 231.867 457.382 231.898V209.767C466.368 211.026 475.486 211.026 484.473 209.767V231.898Z" fill="#E6E6E6"/>
<path d="M532.055 82.4813H167.508V92.6642H532.055V82.4813Z" fill="#E6E6E6"/>
<path d="M532.055 154.78H167.508V164.963H532.055V154.78Z" fill="#E6E6E6"/>
<path d="M532.055 227.078H167.508V237.261H532.055V227.078Z" fill="#E6E6E6"/>
<path d="M470.958 217.914C482.206 217.914 491.324 208.796 491.324 197.548C491.324 186.3 482.206 177.182 470.958 177.182C459.71 177.182 450.592 186.3 450.592 197.548C450.592 208.796 459.71 217.914 470.958 217.914Z" fill="#E6E6E6"/>
<path d="M470.958 213.84C479.956 213.84 487.251 206.546 487.251 197.548C487.251 188.55 479.956 181.255 470.958 181.255C461.96 181.255 454.665 188.55 454.665 197.548C454.665 206.546 461.96 213.84 470.958 213.84Z" fill="white"/>
<path d="M470.958 201.621C473.208 201.621 475.031 199.797 475.031 197.548C475.031 195.298 473.208 193.475 470.958 193.475C468.709 193.475 466.885 195.298 466.885 197.548C466.885 199.797 468.709 201.621 470.958 201.621Z" fill="#E6E6E6"/>
<path d="M485.214 198.566V196.53H468.922V198.566H485.214Z" fill="#E6E6E6"/>
<path d="M469.94 199.584H471.976V183.292H469.94V199.584Z" fill="#E6E6E6"/>
<path d="M353.201 105.104H339.725V158.443H353.201V105.104Z" fill="#E6E6E6"/>
<path d="M353.201 113.526H339.725V119.702H353.201V113.526Z" fill="#CCCCCC"/>
<path d="M353.201 140.476H339.725V146.652H353.201V140.476Z" fill="#CCCCCC"/>
<path d="M332.426 105.104H318.951V158.443H332.426V105.104Z" fill="#E6E6E6"/>
<path d="M332.426 113.526H318.951V119.702H332.426V113.526Z" fill="#CCCCCC"/>
<path d="M332.426 140.476H318.951V146.652H332.426V140.476Z" fill="#CCCCCC"/>
<path d="M364.811 104.884L352.735 110.862L376.401 158.664L388.477 152.685L364.811 104.884Z" fill="#E6E6E6"/>
<path d="M368.548 112.431L356.472 118.41L359.212 123.945L371.288 117.966L368.548 112.431Z" fill="#CCCCCC"/>
<path d="M380.505 136.583L368.429 142.562L371.169 148.097L383.245 142.118L380.505 136.583Z" fill="#CCCCCC"/>
<path d="M233.043 177.403H219.567V230.741H233.043V177.403Z" fill="#E6E6E6"/>
<path d="M233.043 185.825H219.567V192.001H233.043V185.825Z" fill="#CCCCCC"/>
<path d="M233.043 212.775H219.567V218.951H233.043V212.775Z" fill="#CCCCCC"/>
<path d="M212.268 177.403H198.793V230.741H212.268V177.403Z" fill="#E6E6E6"/>
<path d="M212.268 185.825H198.793V192.001H212.268V185.825Z" fill="#CCCCCC"/>
<path d="M212.268 212.775H198.793V218.951H212.268V212.775Z" fill="#CCCCCC"/>
<path d="M244.653 177.182L232.577 183.161L256.243 230.962L268.319 224.983L244.653 177.182Z" fill="#E6E6E6"/>
<path d="M248.39 184.73L236.314 190.708L239.054 196.243L251.13 190.265L248.39 184.73Z" fill="#CCCCCC"/>
<path d="M260.347 208.882L248.271 214.861L251.011 220.395L263.087 214.417L260.347 208.882Z" fill="#CCCCCC"/>
<path d="M359.31 177.403H345.835V230.741H359.31V177.403Z" fill="#E6E6E6"/>
<path d="M359.31 185.825H345.835V192.001H359.31V185.825Z" fill="#CCCCCC"/>
<path d="M359.31 212.775H345.835V218.951H359.31V212.775Z" fill="#CCCCCC"/>
<path d="M338.536 177.403H325.061V230.741H338.536V177.403Z" fill="#E6E6E6"/>
<path d="M338.536 185.825H325.061V192.001H338.536V185.825Z" fill="#CCCCCC"/>
<path d="M338.536 212.775H325.061V218.951H338.536V212.775Z" fill="#CCCCCC"/>
<path d="M370.921 177.182L358.845 183.161L382.51 230.962L394.586 224.983L370.921 177.182Z" fill="#E6E6E6"/>
<path d="M374.657 184.73L362.581 190.708L365.322 196.243L377.398 190.265L374.657 184.73Z" fill="#CCCCCC"/>
<path d="M386.615 208.882L374.539 214.861L377.279 220.395L389.355 214.417L386.615 208.882Z" fill="#CCCCCC"/>
<path d="M503.543 32.6457H449.987V86.2016H503.543V32.6457Z" fill="#E6E6E6"/>
<path d="M492.832 43.3569H460.699V75.4904H492.832V43.3569Z" fill="#CCCCCC"/>
<path d="M470 54.143L476.814 65.944L483.627 77.745H470H456.373L463.187 65.944L470 54.143Z" fill="#E6E6E6"/>
<path d="M481.839 56.398L488.653 68.199L495.466 80H481.839H468.212L475.026 68.199L481.839 56.398Z" fill="#E6E6E6"/>
<path d="M486.631 52.9406C488.81 52.9406 490.577 51.1738 490.577 48.9943C490.577 46.8149 488.81 45.0481 486.631 45.0481C484.451 45.0481 482.685 46.8149 482.685 48.9943C482.685 51.1738 484.451 52.9406 486.631 52.9406Z" fill="#E6E6E6"/>
<path d="M232.679 32.6457H179.123V86.2016H232.679V32.6457Z" fill="#E6E6E6"/>
<path d="M221.968 43.3569H189.834V75.4904H221.968V43.3569Z" fill="#CCCCCC"/>
<path d="M199.136 54.143L205.949 65.944L212.763 77.745H199.136H185.509L192.322 65.944L199.136 54.143Z" fill="#E6E6E6"/>
<path d="M210.975 56.398L217.788 68.199L224.601 80H210.975H197.348L204.161 68.199L210.975 56.398Z" fill="#E6E6E6"/>
<path d="M215.766 52.9406C217.946 52.9406 219.713 51.1738 219.713 48.9943C219.713 46.8149 217.946 45.0481 215.766 45.0481C213.587 45.0481 211.82 46.8149 211.82 48.9943C211.82 51.1738 213.587 52.9406 215.766 52.9406Z" fill="#E6E6E6"/>
<path d="M71.4974 397.845L74.9669 392.483C73.938 389.64 72.7497 386.859 71.4074 384.15L69.1639 385.962L70.9403 383.217C69.2474 379.884 67.9153 377.785 67.9153 377.785C67.9153 377.785 60.957 388.75 58.6323 400.359L63.0845 407.24L58.1557 403.259C57.9801 404.611 57.8898 405.974 57.8853 407.337C57.8853 421.087 62.3759 432.233 67.9153 432.233C73.4547 432.233 77.9453 421.087 77.9453 407.337C77.8414 402.963 77.0675 398.63 75.6507 394.49L71.4974 397.845Z" fill="#FFAE00"/>
<path d="M96.0553 409.765L102.3 408.427C103.582 405.689 104.709 402.882 105.675 400.018L102.807 399.713L106.005 399.027C107.164 395.474 107.707 393.047 107.707 393.047C107.707 393.047 95.0331 395.881 85.1801 402.446L83.4629 410.46L82.7927 404.159C81.7123 404.992 80.6852 405.891 79.7177 406.852C69.9953 416.574 65.289 427.631 69.206 431.548C73.1229 435.465 84.1798 430.759 93.9023 421.036C96.922 417.87 99.4386 414.259 101.364 410.33L96.0553 409.765Z" fill="#FFAE00"/>
<path d="M98.3363 462.969C83.8551 463.895 68.0764 462.915 51.2904 462.969V424.537C66.0816 426.84 81.8551 426.603 98.3363 424.537V462.969Z" fill="#3F3D56"/>
<path d="M696.509 475.031H500.998V728.585H696.509V475.031Z" fill="#E6E6E6"/>
<path d="M102.847 488.269H92.6642V728.585H102.847V488.269Z" fill="#E6E6E6"/>
<path d="M696.509 457.72H0V478.086H696.509V457.72Z" fill="#E6E6E6"/>
<path d="M107.939 478.086H87.5728V498.452H107.939V478.086Z" fill="#E6E6E6"/>
<path d="M614.155 489.796L613.009 494.379H584.497L582.779 489.796H510.162V536.638H687.344V489.796H614.155Z" fill="#3F3D56"/>
<path d="M614.155 548.857L613.009 553.439H584.497L582.779 548.857H510.162V595.698H687.344V548.857H614.155Z" fill="#3F3D56"/>
<path d="M614.155 607.918L613.009 612.5H584.497L582.779 607.918H510.162V654.759H687.344V607.918H614.155Z" fill="#3F3D56"/>
<path d="M614.155 666.979L613.009 671.561H584.497L582.779 666.979H510.162V713.82H687.344V666.979H614.155Z" fill="#3F3D56"/>
<path d="M377.785 454.665H317.706L319.742 428.19H375.748L377.785 454.665Z" fill="#E6E6E6"/>
<path d="M381.858 451.611H314.651V457.72H381.858V451.611Z" fill="#E6E6E6"/>
<path d="M227.078 403.751V426.663C227.078 428.283 227.722 429.837 228.868 430.983C230.013 432.129 231.568 432.772 233.188 432.772H462.812C464.432 432.772 465.986 432.129 467.132 430.983C468.278 429.837 468.922 428.283 468.922 426.663V403.751H227.078Z" fill="#E6E6E6"/>
<path d="M348.254 424.117C351.629 424.117 354.364 421.381 354.364 418.007C354.364 414.633 351.629 411.897 348.254 411.897C344.88 411.897 342.145 414.633 342.145 418.007C342.145 421.381 344.88 424.117 348.254 424.117Z" fill="#3F3D56"/>
<path d="M865.036 727.057C842.781 728.481 818.533 726.975 792.737 727.057V667.997C815.468 671.535 839.708 671.172 865.036 667.997V727.057Z" fill="#3F3D56"/>
<path d="M831.432 673.3H825.322L827.359 553.949H829.395L831.432 673.3Z" fill="#3F3D56"/>
<path d="M858.926 674.107H852.816L854.853 554.755H856.889L858.926 674.107Z" fill="#3F3D56"/>
<path d="M806.993 674.107H800.883L802.92 554.755H804.956L806.993 674.107Z" fill="#3F3D56"/>
<path d="M836.523 477.577L846.386 462.334C843.461 454.255 840.083 446.347 836.268 438.648L829.89 443.799L834.94 435.995C830.127 426.521 826.341 420.553 826.341 420.553C826.341 420.553 806.56 451.723 799.952 484.725L812.608 504.285L798.597 492.969C798.098 496.813 797.841 500.685 797.829 504.562C797.829 543.647 810.594 575.333 826.341 575.333C842.087 575.333 854.853 543.647 854.853 504.562C854.853 492.445 852.111 479.768 848.33 468.041L836.523 477.577Z" fill="#E6E6E6"/>
<path d="M864.017 479.614L873.88 464.371C870.955 456.292 867.577 448.383 863.761 440.684L857.384 445.835L862.434 438.031C857.621 428.558 853.834 422.589 853.834 422.589C853.834 422.589 834.054 453.76 827.446 486.762L840.102 506.322L826.091 495.005C825.592 498.85 825.335 502.722 825.322 506.598C825.322 545.684 838.088 577.369 853.834 577.369C869.581 577.369 882.346 545.684 882.346 506.598C882.346 494.481 879.605 481.804 875.824 470.078L864.017 479.614Z" fill="#FFAE00"/>
<path d="M812.085 479.614L821.947 464.371C819.022 456.292 815.644 448.383 811.829 440.684L805.451 445.835L810.501 438.031C805.688 428.558 801.902 422.589 801.902 422.589C801.902 422.589 782.121 453.76 775.513 486.762L788.169 506.322L774.158 495.005C773.659 498.85 773.403 502.722 773.39 506.598C773.39 545.684 786.155 577.369 801.902 577.369C817.648 577.369 830.414 545.684 830.414 506.598C830.414 494.481 827.673 481.804 823.891 470.078L812.085 479.614Z" fill="#FFAE00"/>
<path d="M462.812 257.627H233.188C231.567 257.627 230.013 258.27 228.868 259.416C227.722 260.562 227.078 262.116 227.078 263.737V403.751H468.922V263.737C468.922 262.116 468.278 260.562 467.132 259.416C465.986 258.27 464.432 257.627 462.812 257.627Z" fill="#3F3D56"/>
<path d="M457.211 270.355H239.298V392.55H457.211V270.355Z" fill="white"/>
<path d="M447.115 298.463H416.282C414.178 286.299 414.178 273.864 416.282 261.7H447.115C443.642 273.708 443.642 286.455 447.115 298.463Z" fill="#FFAE00"/>
<path d="M222.764 372.144L210.079 369.052C205.239 369.059 200.457 367.988 196.081 365.92C191.705 363.851 187.843 360.835 184.776 357.091C181.709 353.346 179.512 348.967 178.345 344.269C177.178 339.571 177.07 334.673 178.028 329.928C178.014 318.608 182.498 307.745 190.493 299.73C198.487 291.715 209.339 287.204 220.659 287.19H220.659C231.98 287.176 242.843 291.659 250.858 299.654C258.873 307.649 263.383 318.5 263.398 329.821V329.821C270.59 354.849 248.064 378.312 222.764 372.144Z" fill="#2F2E41"/>
<path d="M236.62 376.607C253.941 376.607 267.983 362.565 267.983 345.243C267.983 327.922 253.941 313.88 236.62 313.88C219.298 313.88 205.256 327.922 205.256 345.243C205.256 362.565 219.298 376.607 236.62 376.607Z" fill="#FFB8B8"/>
<path d="M216.165 361.607C216.165 361.607 206.62 394.334 201.165 397.062C195.711 399.789 244.802 403.88 244.802 403.88C244.802 403.88 243.438 372.516 246.165 369.789C248.893 367.061 216.165 361.607 216.165 361.607Z" fill="#FFB8B8"/>
<path d="M265.256 563.426C265.256 563.426 326.62 557.971 334.802 578.426C342.984 598.88 329.347 720.244 329.347 720.244H303.438V620.698C303.438 620.698 192.966 589.297 192.966 578.387C192.966 567.478 265.256 563.426 265.256 563.426Z" fill="#2F2E41"/>
<path d="M325.256 714.789L338.893 720.244C338.893 720.244 355.256 718.88 348.438 731.153C346.486 734.716 343.756 737.792 340.451 740.153C337.146 742.514 333.35 744.099 329.347 744.789C329.347 744.789 303.438 754.335 302.074 744.789C300.711 735.244 308.893 716.153 308.893 716.153L325.256 714.789Z" fill="#2F2E41"/>
<path d="M231.165 563.426C231.165 563.426 292.529 557.971 300.711 578.426C308.893 598.88 295.256 720.244 295.256 720.244H269.347V620.698C269.347 620.698 190.929 602.534 190.929 591.625C190.929 586.5 185.585 560.454 195.002 554.967C205.63 548.774 231.165 563.426 231.165 563.426Z" fill="#2F2E41"/>
<path d="M291.165 714.789L304.802 720.244C304.802 720.244 321.165 718.88 314.347 731.153C312.396 734.716 309.665 737.792 306.36 740.153C303.055 742.514 299.259 744.099 295.256 744.789C295.256 744.789 269.347 754.335 267.983 744.789C266.62 735.244 274.802 716.153 274.802 716.153L291.165 714.789Z" fill="#2F2E41"/>
<path d="M202.529 392.971L243.509 397.425C249.834 398.113 255.779 400.781 260.497 405.049C265.215 409.317 268.463 414.967 269.778 421.192L285.711 496.607C285.711 496.607 291.165 571.607 280.256 575.698C269.347 579.789 254.347 559.335 233.892 562.062C213.438 564.789 186.847 570.926 186.847 570.926C186.847 570.926 182.624 436.678 182.074 425.698C180.975 403.747 202.529 392.971 202.529 392.971Z" fill="#B88F36"/>
<path d="M299.601 567.322L316.424 577.23C316.424 577.23 346.607 572.899 345.665 583.508C344.723 594.116 311.776 592.066 311.776 592.066L291.501 579.573L299.601 567.322Z" fill="#FFB8B8"/>
<path d="M175.743 319.735C186.932 319.735 196.003 310.664 196.003 299.475C196.003 288.286 186.932 279.215 175.743 279.215C164.554 279.215 155.483 288.286 155.483 299.475C155.483 310.664 164.554 319.735 175.743 319.735Z" fill="#2F2E41"/>
<path d="M194.436 288.584C194.434 285.587 193.766 282.628 192.482 279.92C191.197 277.213 189.328 274.824 187.008 272.926C184.689 271.029 181.977 269.67 179.069 268.947C176.16 268.225 173.128 268.157 170.19 268.748C172.782 267.523 175.605 266.862 178.471 266.81C181.338 266.758 184.183 267.315 186.818 268.444C189.453 269.573 191.819 271.249 193.758 273.361C195.697 275.473 197.165 277.973 198.066 280.695C198.967 283.417 199.28 286.299 198.983 289.15C198.687 292.002 197.788 294.758 196.347 297.237C194.906 299.715 192.954 301.859 190.623 303.527C188.291 305.195 185.631 306.349 182.82 306.912C186.296 305.275 189.234 302.682 191.291 299.436C193.348 296.191 194.439 292.427 194.436 288.584Z" fill="#2F2E41"/>
<path d="M410.746 326.844C411.113 326.473 411.195 326.259 411.195 325.668C411.195 324.68 410.591 324.039 409.66 324.039C408.864 324.039 408.497 324.233 408.201 324.812C407.813 325.569 407.903 326.176 408.491 326.77C409.199 327.486 410.082 327.515 410.746 326.844V326.844Z" fill="black"/>
<path d="M362.377 326.845C362.803 326.46 362.879 326.287 362.879 325.691C362.879 325.127 362.79 324.897 362.427 324.514C362.051 324.118 361.858 324.039 361.266 324.039C360.689 324.039 360.48 324.119 360.159 324.465C359.633 325.033 359.517 325.484 359.729 326.134C360.12 327.33 361.445 327.686 362.377 326.845Z" fill="black"/>
<path d="M413.345 344.496C413.345 344.06 413.351 344.063 411.926 343.828C411.561 343.768 411.282 343.609 411.158 343.391C411.011 343.131 410.964 341.564 410.964 336.893C410.964 333.508 410.917 330.69 410.859 330.631C410.801 330.572 410.202 330.71 409.529 330.936C408.855 331.163 407.797 331.434 407.176 331.538C406.132 331.714 406.045 331.758 406.001 332.132C405.956 332.526 405.981 332.538 406.961 332.601C407.515 332.637 408.054 332.753 408.16 332.86C408.299 333 408.367 334.007 408.406 336.499C408.469 340.632 408.33 343.359 408.04 343.652C407.927 343.766 407.416 343.907 406.903 343.966C406.019 344.067 405.971 344.094 405.971 344.491V344.91H409.658H413.346L413.345 344.496Z" fill="black"/>
<path d="M388.304 344.503C388.304 344.116 388.248 344.087 387.213 343.932C386.614 343.842 386.078 343.724 386.024 343.669C385.735 343.377 385.597 337.355 385.837 335.479C386.006 334.154 386.451 333.531 387.65 332.936C388.818 332.356 390.36 332.325 391.302 332.861C392.737 333.677 393.003 334.891 392.851 339.946C392.794 341.823 392.709 343.709 392.661 344.135L392.573 344.911H395.124H397.676L397.676 344.496C397.675 344.109 397.618 344.073 396.837 343.974C395.362 343.788 395.459 344.146 395.369 338.523C395.293 333.788 395.276 333.556 394.947 332.93C394.486 332.055 393.927 331.537 392.913 331.047C392.183 330.694 391.868 330.638 390.597 330.636C388.9 330.635 388.653 330.753 386.809 332.441L385.769 333.394L385.726 331.92C385.702 331.11 385.744 328.743 385.82 326.661C385.896 324.579 385.933 322.831 385.903 322.776C385.873 322.72 385.335 322.84 384.709 323.041C384.083 323.241 382.977 323.493 382.25 323.599C380.952 323.788 380.93 323.799 380.93 324.226C380.93 324.649 380.952 324.66 381.775 324.66C382.415 324.66 382.694 324.735 382.927 324.971C383.227 325.274 383.234 325.488 383.234 334.252C383.234 341.184 383.191 343.283 383.042 343.486C382.929 343.643 382.458 343.82 381.89 343.921C380.997 344.079 380.93 344.12 380.93 344.501V344.911H384.617H388.304L388.304 344.503Z" fill="black"/>
<path d="M364.953 344.492C364.953 344.127 364.877 344.06 364.377 343.979C363.47 343.832 363.202 343.761 362.969 343.609C362.615 343.376 362.489 340.381 362.623 335.366C362.69 332.85 362.693 330.729 362.63 330.653C362.565 330.575 361.957 330.697 361.237 330.931C360.535 331.16 359.442 331.434 358.808 331.539C357.723 331.718 357.653 331.754 357.607 332.152C357.559 332.572 357.567 332.575 358.491 332.575C359.227 332.575 359.489 332.642 359.739 332.895C360.048 333.207 360.055 333.338 360.008 338.339C359.953 344.199 360.063 343.79 358.498 343.969C357.674 344.063 357.579 344.11 357.579 344.428C357.579 344.623 357.608 344.812 357.643 344.847C357.679 344.883 359.338 344.912 361.33 344.912H364.953L364.953 344.492Z" fill="black"/>
<path d="M356.196 344.496C356.196 344.107 356.14 344.073 355.331 343.971C353.728 343.769 353.856 344.762 353.916 333.026C353.952 326.049 353.918 322.798 353.809 322.798C353.722 322.798 353.261 322.937 352.784 323.106C352.067 323.36 349.593 323.885 349.109 323.885C349.035 323.885 348.975 324.094 348.975 324.35V324.816H349.955C350.601 324.816 350.995 324.889 351.111 325.03C351.24 325.187 351.276 327.698 351.245 334.424C351.209 342.199 351.169 343.625 350.982 343.742C350.861 343.817 350.36 343.926 349.869 343.984C349.031 344.082 348.975 344.114 348.975 344.5L348.975 344.912H352.585H356.196L356.196 344.496Z" fill="black"/>
<path d="M317.789 344.507C317.789 344.123 317.74 344.098 316.791 344.009C315.341 343.872 315.22 343.772 315.104 342.624C314.932 340.904 315.075 334.859 315.29 334.786C315.395 334.751 316.363 335.578 317.441 336.625C318.52 337.671 320.87 339.953 322.663 341.696L325.924 344.866L328.04 344.859L330.156 344.851L330.204 344.458C330.247 344.109 330.185 344.053 329.658 343.968C329.135 343.884 328.397 343.235 323.541 338.598C320.504 335.698 318.019 333.264 318.019 333.19C318.019 333.048 322.751 328.566 325.075 326.505C326.678 325.084 327.115 324.847 328.376 324.714C329.256 324.621 329.311 324.592 329.311 324.211V323.806H326.776H324.241V324.358C324.241 324.873 323.948 325.211 319.896 329.363C317.506 331.812 315.432 333.815 315.287 333.815C315.045 333.815 315.024 333.508 315.027 330.13C315.031 326.55 315.13 325.421 315.472 325.075C315.563 324.984 316.09 324.861 316.643 324.803C317.196 324.746 317.673 324.672 317.703 324.64C317.734 324.608 317.783 324.417 317.812 324.214L317.866 323.847L313.679 323.827L309.493 323.806L309.493 324.233C309.493 324.637 309.531 324.66 310.223 324.668C310.624 324.674 311.192 324.76 311.484 324.862C311.929 325.017 312.036 325.147 312.14 325.659C312.209 325.996 312.247 330.131 312.224 334.848C312.186 342.42 312.153 343.454 311.939 343.67C311.786 343.825 311.289 343.95 310.594 344.009C309.534 344.099 309.493 344.117 309.493 344.506L309.493 344.91H313.641H317.789L317.789 344.506L317.789 344.507Z" fill="black"/>
<path d="M428.943 322.774L428.557 322.862C428.344 322.91 427.66 323.089 427.037 323.26C426.414 323.43 425.464 323.615 424.926 323.671C423.974 323.769 423.946 323.785 423.946 324.216C423.946 324.659 423.95 324.66 424.926 324.66C425.649 324.66 425.961 324.728 426.116 324.917C426.423 325.291 426.526 331.333 426.225 331.333C426.112 331.333 425.642 331.188 425.181 331.011C423.929 330.531 422.534 330.465 421.388 330.833C420.114 331.242 417.892 332.483 417.077 333.242C415.125 335.059 414.649 339.223 416.066 342.094C417.301 344.593 420.067 345.787 422.704 344.958C422.993 344.867 423.887 344.208 424.691 343.493C425.495 342.779 426.192 342.195 426.24 342.195C426.288 342.195 426.305 342.806 426.279 343.553L426.231 344.911H428.699H431.167V344.498C431.167 344.132 431.093 344.074 430.513 343.984C429.493 343.827 429.021 343.589 428.919 343.181C428.868 342.976 428.853 338.3 428.885 332.791L428.943 322.774ZM422.027 331.861C423.27 331.869 424.607 332.404 425.751 333.477L426.404 334.09L426.4 335.776C426.39 340.605 425.817 342.172 423.75 343.045C422.925 343.393 421.398 343.352 420.616 342.961C419.682 342.494 418.673 341.328 418.267 340.248C417.552 338.346 417.699 335.405 418.587 333.835C419.332 332.516 420.619 331.851 422.027 331.861H422.027Z" fill="black"/>
<path d="M402.202 345.079C403.096 344.701 403.511 343.325 402.966 342.54C402.681 342.129 401.967 341.73 401.516 341.73C400.996 341.73 400.31 342.166 400.059 342.656C399.59 343.572 399.901 344.603 400.778 345.04C401.405 345.352 401.547 345.355 402.202 345.079V345.079Z" fill="black"/>
<path d="M373.072 330.575C371.848 330.561 370.545 330.957 369.1 331.766L367.795 332.497L367.75 333.602C367.707 334.675 367.717 334.71 368.09 334.783C368.444 334.851 368.509 334.77 368.868 333.82C369.322 332.62 369.751 332.321 371.236 332.164C373.479 331.927 375.099 333.209 375.268 335.355L375.323 336.04L373.018 336.529C369.892 337.193 369.08 337.456 368.307 338.051C367.234 338.878 366.757 339.813 366.675 341.251C366.542 343.561 367.398 344.788 369.393 345.149C370.165 345.289 371.465 345.205 371.864 344.99C372.002 344.915 372.838 344.283 373.719 343.584L375.323 342.314L375.367 343.613L375.41 344.911H377.632H379.854V344.407C379.854 343.91 379.846 343.903 379.125 343.901C377.882 343.897 377.952 344.164 377.826 338.983C377.765 336.44 377.637 334.034 377.543 333.637C377.284 332.542 376.609 331.729 375.496 331.176C374.711 330.786 373.91 330.585 373.072 330.575H373.072ZM375.07 337.076C375.288 337.077 375.328 337.339 375.363 339.022L375.404 340.967L374.64 341.784C373.301 343.214 371.507 343.794 370.341 343.174C369.463 342.707 369.177 342.168 369.178 340.981C369.18 339.558 369.565 338.943 370.844 338.327C371.74 337.895 374.515 337.073 375.07 337.076H375.07Z" fill="black"/>
<path d="M338.354 345.137C339.698 344.916 340.625 344.401 341.742 343.251L342.693 342.273L342.59 343.592L342.487 344.911H344.963H347.439L347.439 344.485C347.439 344.083 347.399 344.058 346.755 344.058C345.865 344.058 345.305 343.79 345.185 343.306C345.132 343.093 345.127 340.137 345.174 336.738C345.234 332.359 345.211 330.557 345.093 330.557C345.002 330.557 344.426 330.732 343.814 330.945C343.201 331.159 342.125 331.423 341.421 331.533C340.202 331.724 340.139 331.753 340.093 332.154C340.045 332.572 340.049 332.574 341.024 332.574C342.662 332.574 342.6 332.414 342.6 336.635C342.6 338.627 342.545 340.454 342.478 340.696C342.315 341.286 341.065 342.614 340.304 343.007C339.966 343.181 339.273 343.355 338.764 343.394C337.993 343.452 337.721 343.401 337.148 343.09C335.921 342.424 335.847 342.158 335.794 338.239C335.769 336.361 335.812 333.917 335.89 332.807C335.969 331.698 335.979 330.731 335.914 330.659C335.848 330.586 335.279 330.707 334.649 330.927C334.019 331.147 332.992 331.406 332.367 331.504C330.828 331.745 330.847 331.737 330.847 332.182C330.847 332.561 330.881 332.574 331.827 332.574C332.486 332.574 332.866 332.647 332.988 332.795C333.117 332.953 333.166 334.225 333.159 337.294C333.154 339.761 333.218 341.886 333.312 342.311C333.633 343.775 334.732 344.832 336.246 345.132C337.176 345.317 337.253 345.317 338.353 345.136L338.354 345.137Z" fill="black"/>
<path d="M272.291 351.222C273.067 350.99 273.888 350.399 275.087 349.212L275.766 348.54V344.079V339.618L277.517 337.917C278.48 336.982 279.438 336.05 279.645 335.847L280.022 335.477L280.646 336.04C281.493 336.805 281.858 337.11 283.818 338.69C285.853 340.331 286.559 340.938 287.14 341.545C288.041 342.487 288.258 343.072 287.862 343.486C287.56 343.8 286.871 343.976 285.756 344.024L285.002 344.057L284.633 343.672C284.43 343.46 283.825 342.767 283.288 342.132C281.577 340.11 280.929 339.615 280.053 339.664C279.659 339.687 279.299 339.845 278.942 340.153L278.759 340.311L279.304 341.294C279.604 341.834 280.231 342.98 280.697 343.841C281.681 345.659 282.008 346.217 282.953 347.686L283.646 348.764L287.484 348.734C289.595 348.718 291.826 348.682 292.441 348.655C295.281 348.528 296.855 348.307 297.621 347.929C298.783 347.355 298.505 346.473 296.558 344.562C295.783 343.801 294.861 342.984 292.156 340.661C288.256 337.312 285.338 334.698 283.498 332.905L283.108 332.524L283.713 331.935C285.948 329.76 288.369 327.564 292.846 323.651C296.237 320.689 297.321 319.589 297.743 318.681C297.924 318.292 297.915 317.909 297.72 317.65C297.296 317.089 295.844 316.768 292.965 316.601C291.792 316.533 287.979 316.459 285.579 316.458L283.553 316.457L283.193 316.83C281.297 318.791 279.511 321.232 278.537 323.195C277.822 324.636 277.67 325.561 278.109 325.798C278.171 325.832 278.322 325.843 278.496 325.828C279.426 325.742 281.609 324.153 284.407 321.523L285.306 320.678L285.813 320.706C286.091 320.721 286.437 320.759 286.581 320.79C286.98 320.876 287.417 321.103 287.569 321.304C287.688 321.462 287.701 321.517 287.701 321.867C287.701 322.224 287.684 322.29 287.506 322.665C287.399 322.89 287.148 323.293 286.948 323.561C286.602 324.025 285.459 325.302 285.17 325.55C285.094 325.614 284.786 325.898 284.485 326.181C283.672 326.945 282.813 327.695 281.245 329.012C280.472 329.662 279.336 330.616 278.72 331.133C278.104 331.651 277.261 332.377 276.846 332.748C276.431 333.118 276.007 333.495 275.905 333.584L275.718 333.747V325.079V316.411L275.397 316.143C274.702 315.563 273.906 315.072 273.288 314.842C272.779 314.652 272.189 314.646 271.807 314.827C271.205 315.112 270.787 315.784 270.504 316.921C270.073 318.649 269.995 320.73 270.094 327.815C270.159 332.477 270.141 333.792 269.944 338.764C269.821 341.877 269.795 346.605 269.896 347.595C270.195 350.526 270.925 351.632 272.291 351.223L272.291 351.222Z" fill="#FFAE00"/>
<path d="M211.817 300.074L239.13 295.045L260.135 308.21C265.299 311.446 269.426 316.096 272.028 321.608C274.629 327.119 275.596 333.261 274.812 339.305L253.775 333.973L249.064 322.161L243.454 331.357L214.12 369.107L197.65 358.619L182.967 335.609L211.817 300.074Z" fill="#2F2E41"/>
<path d="M234.309 404.57L247.945 397.752C247.945 397.752 276.582 401.843 282.036 420.934C287.491 440.025 312.036 572.298 312.036 572.298L288.854 583.207L256.127 502.753L234.309 404.57Z" fill="#B88F36"/>
<path opacity="0.2" d="M245.917 458.23L259.565 511.205L283.767 570.701L282.928 572.761L254.063 512.199L245.917 458.23Z" fill="black"/>
<path d="M144.084 750.379L139.271 748.721L185.896 610.231L192.636 612.553L144.084 750.379Z" fill="#3F3D56"/>
<path d="M322.291 750.379L327.105 748.721L280.479 610.231L273.74 612.553L322.291 750.379Z" fill="#3F3D56"/>
<path d="M223.77 778.981L228.861 778.999L230.443 617.107L223.315 617.082L223.77 778.981Z" fill="#3F3D56"/>
<path d="M132.3 528.856L146.266 585.301C148.221 593.206 152.293 600.429 158.044 606.194C163.795 611.958 171.008 616.048 178.908 618.023H178.908C217.857 627.76 258.635 627.497 297.455 617.259L318.306 611.76C330.422 608.565 339.532 598.159 340.395 585.659C340.744 581.239 339.944 576.805 338.072 572.787C337.99 572.614 337.908 572.442 337.826 572.272C335.107 566.686 330.912 561.95 325.695 558.577C320.478 555.204 314.437 553.321 308.228 553.134L286.139 552.421L205.694 516.781C205.694 516.781 178.027 502.728 155.283 501.155C140.262 500.116 128.683 514.24 132.3 528.856Z" fill="#FFAE00"/>
<path d="M622.683 351.309H543.257V459.248H622.683V351.309Z" fill="#E6E6E6"/>
<path d="M613.518 363.764H552.421V446.793H613.518V363.764Z" fill="white"/>
<path d="M606.069 385.492H576.467V388.865H606.069V385.492Z" fill="#3F3D56"/>
<path d="M567.065 383.625H559.87V390.819H567.065V383.625Z" fill="#3F3D56"/>
<path d="M606.069 399.748H576.467V403.121H606.069V399.748Z" fill="#3F3D56"/>
<path d="M567.065 397.881H559.87V405.075H567.065V397.881Z" fill="#3F3D56"/>
<path d="M606.069 414.004H576.467V417.377H606.069V414.004Z" fill="#3F3D56"/>
<path d="M567.065 412.137H559.87V419.331H567.065V412.137Z" fill="#3F3D56"/>
<path d="M586.025 357.419C586.025 355.732 584.657 354.364 582.97 354.364C581.283 354.364 579.915 355.732 579.915 357.419C579.915 359.106 581.283 360.474 582.97 360.474C584.657 360.474 586.025 359.106 586.025 357.419Z" fill="#3F3D56"/>
</g>
<defs>
<clipPath id="clip0_1_2">
<rect width="882.346" height="778.999" fill="white"/>
</clipPath>
</defs>
</svg>
