<?xml version="1.0" encoding="UTF-8" standalone="no"?>
<!-- Created with Inkscape (http://www.inkscape.org/) -->

<svg
   width="12mm"
   height="15mm"
   viewBox="0 0 12 15"
   version="1.1"
   id="svg879"
   inkscape:version="1.1.1 (3bf5ae0d25, 2021-09-20)"
   sodipodi:docname="logo-icon-white.svg"
   xmlns:inkscape="http://www.inkscape.org/namespaces/inkscape"
   xmlns:sodipodi="http://sodipodi.sourceforge.net/DTD/sodipodi-0.dtd"
   xmlns="http://www.w3.org/2000/svg"
   xmlns:svg="http://www.w3.org/2000/svg">
  <sodipodi:namedview
     id="namedview881"
     pagecolor="#ffffff"
     bordercolor="#666666"
     borderopacity="1.0"
     inkscape:pageshadow="2"
     inkscape:pageopacity="0.0"
     inkscape:pagecheckerboard="0"
     inkscape:document-units="mm"
     showgrid="false"
     inkscape:zoom="2.7438272"
     inkscape:cx="63.415073"
     inkscape:cy="66.330709"
     inkscape:window-width="1920"
     inkscape:window-height="974"
     inkscape:window-x="-11"
     inkscape:window-y="-11"
     inkscape:window-maximized="1"
     inkscape:current-layer="layer1" />
  <defs
     id="defs876" />
  <g
     inkscape:label="Layer 1"
     inkscape:groupmode="layer"
     id="layer1">
    <path
       style="fill:#ffffff;stroke-width:0.0171898"
       d="m 1.749513,14.008846 c 0.27977,-0.0831 0.57618,-0.29405 1.00873,-0.71808 l 0.24495,-0.24012 v -1.5934 -1.5933906 l 0.63173,-0.60748 c 0.34745,-0.33411 0.69299,-0.66686 0.76787,-0.73944 l 0.13615,-0.13197 0.22484,0.20096 c 0.30556,0.2731 0.43724,0.38201 1.14449,0.94656 0.73437,0.5862206 0.98892,0.8028106 1.19862,1.0199006 0.325,0.33647 0.40352,0.54535 0.26046,0.69296 -0.10873,0.11218 -0.35739,0.17517 -0.75976,0.19246 l -0.2719,0.0117 -0.13314,-0.13752 c -0.0732,-0.0756 -0.29174,-0.32317 -0.48559,-0.55008 -0.61723,-0.72245 -0.85106,-0.8990506 -1.16712,-0.8814206 -0.14219,0.008 -0.27181,0.0643 -0.40083,0.1745006 l -0.0661,0.0564 0.19687,0.35104 c 0.10827,0.19308 0.33433,0.60245 0.50234,0.90972 0.35511,0.64945 0.47323,0.84873 0.8141,1.37351 l 0.25013,0.3851 1.38465,-0.0106 c 0.76155,-0.006 1.56642,-0.0187 1.7886,-0.0285 1.02459,-0.0453 1.59239,-0.12408 1.86891,-0.25932 0.4192,-0.20502 0.31877,-0.51983 -0.38364,-1.20261 -0.27971,-0.27188 -0.61226,-0.56362 -1.58841,-1.39342 C 7.509513,9.0402854 6.456673,8.1065054 5.793023,7.4660754 l -0.14101,-0.13607 0.21836,-0.21043 c 0.80639,-0.77706 1.67989,-1.56135 3.29534,-2.95879 1.22339,-1.05828 1.61428,-1.45112 1.76667,-1.77545 0.0652,-0.13877 0.0621,-0.27574 -0.008,-0.36812 -0.15299,-0.20059 -0.67667,-0.31497 -1.71531,-0.37467 -0.42325,-0.0243 -1.79904,-0.0507 -2.66482,-0.0511 l -0.73098,-4.1e-4 -0.13011,0.13322 c -0.68397,0.70029 -1.32822,1.5722 -1.67977,2.27336 -0.25806,0.51466 -0.31296,0.84507 -0.15452,0.92986 0.0226,0.0121 0.0771,0.0162 0.13954,0.0105 0.33556,-0.0304 1.12321,-0.59816 2.13291,-1.53741 l 0.32442,-0.30179 0.18267,0.01 c 0.10048,0.005 0.22523,0.019 0.27722,0.03 0.14395,0.0306 0.30171,0.11179 0.35637,0.18346 0.0429,0.0563 0.0476,0.076 0.0476,0.20125 0,0.12722 -0.006,0.15111 -0.0703,0.28497 -0.0386,0.0804 -0.12923,0.22432 -0.20128,0.31989 -0.12505,0.16588 -0.53709,0.62209 -0.64157,0.71035 -0.0272,0.023 -0.13846,0.12453 -0.24719,0.22561 -0.29325,0.27266 -0.60327,0.54086 -1.16891,1.01122 -0.2789,0.23192 -0.68888,0.57284 -0.91106,0.7576 -0.22218,0.18476 -0.52646,0.44423 -0.67619,0.57659 -0.14973,0.13237 -0.3025,0.26681 -0.3395,0.29876 l -0.0673,0.0581 v -3.09603 -3.09602 l -0.11603,-0.0959 c -0.25051,-0.20688 -0.53799,-0.38254 -0.76065,-0.46472 -0.18363,-0.0678 -0.39666,-0.0699 -0.53437,-0.005 -0.21713,0.10182 -0.36797,0.34172 -0.47033,0.74801 -0.15543997,0.61703 -0.18368997,1.36049 -0.14785997,3.89118 0.0236,1.66506 0.0171,2.13476 -0.0541,3.91068 -0.0446,1.1119906 -0.0539,2.8009706 -0.0175,3.1543306 0.10796,1.04704 0.37150997,1.4422 0.86429997,1.29591 z"
       id="path956" />
  </g>
</svg>
