<?xml version="1.0" encoding="UTF-8" standalone="no"?>
<!-- Created with Inkscape (http://www.inkscape.org/) -->

<svg
   width="46mm"
   height="10mm"
   viewBox="0 0 46 10"
   version="1.1"
   id="svg970"
   inkscape:version="1.1.1 (3bf5ae0d25, 2021-09-20)"
   sodipodi:docname="logo-text-white.svg"
   xmlns:inkscape="http://www.inkscape.org/namespaces/inkscape"
   xmlns:sodipodi="http://sodipodi.sourceforge.net/DTD/sodipodi-0.dtd"
   xmlns="http://www.w3.org/2000/svg"
   xmlns:svg="http://www.w3.org/2000/svg">
  <sodipodi:namedview
     id="namedview972"
     pagecolor="#ffffff"
     bordercolor="#666666"
     borderopacity="1.0"
     inkscape:pageshadow="2"
     inkscape:pageopacity="0.0"
     inkscape:pagecheckerboard="0"
     inkscape:document-units="mm"
     showgrid="false"
     inkscape:zoom="2.7438272"
     inkscape:cx="74.348706"
     inkscape:cy="6.9246344"
     inkscape:window-width="1920"
     inkscape:window-height="974"
     inkscape:window-x="-11"
     inkscape:window-y="-11"
     inkscape:window-maximized="1"
     inkscape:current-layer="layer1" />
  <defs
     id="defs967" />
  <g
     inkscape:label="Layer 1"
     inkscape:groupmode="layer"
     id="layer1">
    <g
       id="g857"
       transform="translate(-13.920109,-2.5085048)">
      <path
         style="fill:#ffffff;stroke-width:0.0554283"
         d="m 51.501974,4.9448707 c 0.132654,-0.1326548 0.162023,-0.2087727 0.162023,-0.4199742 0,-0.3530936 -0.217762,-0.5819973 -0.553664,-0.5819973 -0.287169,0 -0.419836,0.069539 -0.526612,0.276033 -0.139856,0.2704422 -0.107372,0.4873982 0.104733,0.6995031 0.255647,0.2556467 0.573971,0.2659904 0.81352,0.026449 z"
         id="path982" />
      <path
         style="fill:#ffffff;stroke-width:0.0554283"
         d="m 34.05077,4.9451456 c 0.153807,-0.1374273 0.181021,-0.1993651 0.181021,-0.4120724 0,-0.2014338 -0.03182,-0.2835223 -0.162802,-0.4202556 -0.135718,-0.141663 -0.20544,-0.1699249 -0.419195,-0.1699249 -0.208164,0 -0.283254,0.028674 -0.399116,0.1524257 -0.189847,0.2027759 -0.231771,0.3637515 -0.155169,0.5958565 0.140989,0.4271886 0.61913,0.5543114 0.955261,0.2539707 z"
         id="path980" />
      <path
         style="fill:#ffffff;stroke-width:0.0554283"
         d="m 52.439991,11.249976 c 0,-0.155581 0.002,-0.154684 -0.512033,-0.238619 -0.13187,-0.02154 -0.232616,-0.0783 -0.277146,-0.156164 -0.05309,-0.09284 -0.06996,-0.652321 -0.06996,-2.3208986 0,-1.2092056 -0.01715,-2.2157269 -0.03804,-2.236709 -0.02095,-0.020949 -0.236858,0.028085 -0.479837,0.1089821 -0.242979,0.080917 -0.624936,0.1776565 -0.848792,0.2149789 -0.376636,0.062782 -0.408289,0.078638 -0.423916,0.2122294 -0.01643,0.1406089 -0.0074,0.1449755 0.346272,0.1675026 0.199739,0.0127 0.394416,0.054337 0.432603,0.092478 0.05021,0.050147 0.07475,0.4097549 0.08862,1.2999488 0.02298,1.4760668 -0.0273,2.4502478 -0.131993,2.5549088 -0.04066,0.04066 -0.225244,0.09108 -0.410141,0.112 -0.318901,0.03607 -0.336177,0.04576 -0.336177,0.187712 v 0.149676 h 1.330279 1.330279 z"
         id="path978" />
      <path
         style="fill:#ffffff;stroke-width:0.0554283"
         d="m 43.405174,11.252595 c 0,-0.138187 -0.02036,-0.148753 -0.393512,-0.204138 -0.216439,-0.03214 -0.409487,-0.07437 -0.429002,-0.09389 -0.104328,-0.104328 -0.154076,-2.2551056 -0.06766,-2.925404 0.06101,-0.4731199 0.221408,-0.6958828 0.654148,-0.908374 0.421329,-0.2068938 0.97784,-0.2181998 1.317834,-0.026776 0.517663,0.29147 0.613369,0.7250285 0.558639,2.5305947 -0.02036,0.6706853 -0.05126,1.3441393 -0.06867,1.4965643 l -0.03169,0.277146 h 0.920558 0.920557 l -2.6e-5,-0.148445 c -2.6e-5,-0.13822 -0.02088,-0.151038 -0.302639,-0.186246 -0.531935,-0.06646 -0.497159,0.06141 -0.529565,-1.9472096 C 45.926852,7.4251151 45.920568,7.3423916 45.801759,7.118758 45.635671,6.8060965 45.434047,6.6212257 45.06805,6.4460046 44.804743,6.3199488 44.690878,6.2999815 44.232579,6.2994905 43.62033,6.2988358 43.53089,6.3409963 42.865652,6.9442439 l -0.375019,0.3400658 -0.01578,-0.5262918 c -0.0086,-0.2894667 0.0067,-1.1347506 0.03404,-1.8784108 0.02743,-0.7436602 0.04085,-1.3682107 0.02992,-1.3878899 -0.01093,-0.019705 -0.204714,0.022913 -0.430606,0.094645 -0.225899,0.071738 -0.62512,0.1614273 -0.887163,0.1993128 -0.468452,0.067732 -0.476446,0.071489 -0.476446,0.2240722 0,0.1511425 0.0079,0.1551818 0.304858,0.1551818 0.230953,0 0.331726,0.026841 0.415713,0.1108544 0.108301,0.1083013 0.110854,0.1847596 0.110854,3.3151061 0,2.4761785 -0.01571,3.2256585 -0.06928,3.2984905 -0.04098,0.05578 -0.210783,0.119097 -0.415712,0.15509 -0.322227,0.05656 -0.34643,0.07107 -0.34643,0.207346 v 0.146507 h 1.33028 1.330279 z"
         id="path976" />
      <path
         style="fill:#ffffff;stroke-width:0.0554283"
         d="m 34.980087,11.248667 c -1.3e-5,-0.130338 -0.02717,-0.154285 -0.20787,-0.183339 -0.327221,-0.05263 -0.423921,-0.07781 -0.507732,-0.132295 -0.12796,-0.0832 -0.173414,-1.1530288 -0.125086,-2.9441335 0.02422,-0.8988616 0.02534,-1.6564466 0.0026,-1.6835235 -0.0235,-0.027758 -0.242894,0.015712 -0.502422,0.099463 -0.253389,0.081781 -0.647778,0.1793979 -0.87642,0.2169167 -0.391529,0.064223 -0.416734,0.077015 -0.433251,0.2192539 -0.01741,0.1497415 -0.01466,0.1510181 0.318711,0.1510181 0.265695,0 0.360229,0.023961 0.450527,0.1142718 0.111522,0.1115288 0.113853,0.1581933 0.09699,1.9445189 -0.01977,2.0931086 0.01984,1.9470136 -0.544786,2.0108956 -0.297454,0.03365 -0.33162,0.05054 -0.33162,0.164098 0,0.06962 0.01041,0.136969 0.02318,0.149676 0.0127,0.0127 0.611359,0.02311 1.330292,0.02311 h 1.307157 z"
         id="path974" />
      <path
         style="fill:#ffffff;stroke-width:0.0554283"
         d="m 31.820634,11.249976 c 2.6e-5,-0.138782 -0.02029,-0.150979 -0.312131,-0.187444 -0.578403,-0.07227 -0.532086,0.282528 -0.51043,-3.9094106 0.0129,-2.4923099 6.55e-4,-3.6532602 -0.03849,-3.6532536 -0.03156,6.5e-6 -0.197944,0.049427 -0.369787,0.1098266 -0.258704,0.090926 -1.151366,0.2781868 -1.32611,0.2781868 -0.02651,0 -0.04818,0.074828 -0.04818,0.1662849 V 4.220451 h 0.3535 c 0.233014,0 0.375136,0.026056 0.417002,0.076524 0.04655,0.056039 0.05944,0.9530091 0.04838,3.3554531 -0.01283,2.7770689 -0.0273,3.2864449 -0.09469,3.3280619 -0.04373,0.02704 -0.22457,0.06597 -0.401854,0.08655 -0.30237,0.03509 -0.322324,0.04648 -0.322337,0.184393 l -1.3e-5,0.146986 h 1.302561 1.302561 z"
         id="path972" />
      <path
         style="fill:#ffffff;stroke-width:0.0554283"
         d="m 17.963574,11.253904 c 7e-6,-0.137323 -0.01768,-0.146062 -0.359974,-0.178023 -0.523084,-0.04884 -0.566959,-0.0845 -0.60859,-0.494691 -0.06232,-0.6140629 -0.01054,-2.7735149 0.06716,-2.7993676 0.03771,-0.01257 0.386907,0.2829266 0.775994,0.656616 0.389081,0.3736828 1.236911,1.1888717 1.884067,1.8115236 l 1.176649,1.132099 0.76334,-0.0026 0.763346,-0.0026 0.01741,-0.140622 c 0.01545,-0.124648 -0.0069,-0.144511 -0.197041,-0.174914 -0.188563,-0.03011 -0.455091,-0.261787 -2.206843,-1.9179521 -1.095805,-1.036014 -1.992375,-1.9052652 -1.992375,-1.9316678 0,-0.050671 1.707039,-1.6518771 2.545691,-2.3878254 0.578377,-0.5075552 0.736007,-0.5922296 1.190986,-0.6397845 0.317532,-0.033192 0.337303,-0.043732 0.337303,-0.1797841 V 3.8597371 H 21.20613 20.291563 v 0.1972834 c 0,0.1839608 -0.105879,0.3046745 -1.567844,1.7875629 -0.862312,0.8746587 -1.610594,1.5902796 -1.662849,1.5902796 -0.08709,0 -0.09489,-0.1096564 -0.09368,-1.3164201 0.0013,-1.2786198 0.03712,-1.6819197 0.160537,-1.8053044 0.0328,-0.032799 0.222848,-0.076517 0.422338,-0.097165 0.199496,-0.020622 0.371712,-0.046874 0.382697,-0.058331 0.011,-0.011391 0.02867,-0.07983 0.03921,-0.1520133 l 0.01931,-0.1312407 -1.510412,-0.00733 -1.510411,-0.00733 -1.1e-5,0.1524323 c -5e-6,0.1444518 0.01377,0.1525893 0.263279,0.1555549 0.144807,0.00196 0.349575,0.03293 0.455039,0.069283 0.160698,0.05545 0.199076,0.1015517 0.236917,0.284668 0.02485,0.1201769 0.03832,1.5971536 0.02996,3.2821764 -0.01343,2.7047289 -0.02546,3.0739209 -0.102758,3.1511969 -0.05523,0.05519 -0.234268,0.09982 -0.484997,0.120845 -0.382727,0.03208 -0.397443,0.03869 -0.397449,0.177709 l -6e-6,0.144386 h 1.496559 1.496562 l 1.3e-5,-0.144412 z"
         id="path970" />
      <path
         id="path966"
         style="fill:#ffffff;stroke-width:0.0554283"
         d="m 58.067658,3.4910718 -0.139381,0.031462 c -0.07671,0.017217 -0.323566,0.081147 -0.548397,0.1420887 -0.224831,0.06095 -0.567526,0.126917 -0.761869,0.1468261 -0.343431,0.035155 -0.353531,0.040684 -0.353531,0.1948652 0,0.1579706 0.0014,0.1586652 0.353531,0.1586652 0.261015,0 0.373481,0.024082 0.42965,0.091682 0.110796,0.1333622 0.147774,2.2917353 0.03924,2.2916955 -0.04085,-1.21e-5 -0.210413,-0.051751 -0.376875,-0.1150241 C 56.258412,6.2616795 55.755341,6.238365 55.341572,6.3697304 54.882018,6.515642 54.08039,6.9590286 53.786374,7.230047 53.08198,7.8793307 52.91039,9.3666298 53.421678,10.391868 c 0.445264,0.892846 1.443298,1.319213 2.394879,1.023042 0.104255,-0.03247 0.426837,-0.267971 0.716873,-0.523023 0.290049,-0.25505 0.541633,-0.463748 0.558884,-0.463819 0.01729,-5.2e-5 0.02349,0.218311 0.01387,0.485133 l -0.01725,0.485133 h 0.890426 0.890425 v -0.147502 c -2.6e-5,-0.130993 -0.02665,-0.151766 -0.235799,-0.183701 -0.368165,-0.05624 -0.538521,-0.141071 -0.575124,-0.286885 -0.01833,-0.07315 -0.02383,-1.7433245 -0.01218,-3.7112338 z m -2.495356,3.2457223 c 0.448337,0.00312 0.930778,0.1939869 1.343419,0.5774919 l 0.235801,0.2188847 -0.0014,0.602187 c -0.0039,1.7247609 -0.210309,2.2845713 -0.956057,2.5961713 -0.297852,0.124446 -0.848624,0.109995 -1.130962,-0.02977 C 54.726324,10.535041 54.362104,10.118373 54.215656,9.732507 53.957823,9.0531811 54.010737,8.0026259 54.33102,7.4418266 54.600011,6.9708418 55.064156,6.7332571 55.572269,6.7367941 Z" />
      <path
         style="fill:#ffffff;stroke-width:0.0554283"
         d="m 48.419536,11.458133 c 0.322566,-0.134776 0.472052,-0.626553 0.275679,-0.906914 -0.102756,-0.14671 -0.360504,-0.289159 -0.523202,-0.289159 -0.187784,0 -0.435051,0.155595 -0.52563,0.330757 -0.169218,0.327234 -0.05702,0.695398 0.25947,0.851372 0.226036,0.111398 0.277126,0.112786 0.513683,0.01394 z"
         id="path964" />
      <path
         id="path960"
         style="fill:#ffffff;stroke-width:0.0554283"
         d="m 37.909604,6.2777109 c -0.441777,-0.00497 -0.911837,0.136241 -1.433071,0.4252529 l -0.470924,0.2611729 -0.01623,0.3948055 c -0.01564,0.3830633 -0.01211,0.3957442 0.122806,0.4215305 0.127385,0.024354 0.15088,-0.00464 0.280457,-0.3437196 0.163777,-0.4286097 0.318761,-0.5356938 0.854564,-0.5917006 0.809186,-0.084577 1.393728,0.3733616 1.454723,1.1397584 l 0.01962,0.2449342 -0.83156,0.1745663 c -1.127975,0.2372453 -1.420795,0.3309676 -1.699657,0.5436616 -0.387156,0.2952926 -0.559272,0.6294075 -0.588993,1.142802 -0.04779,0.825114 0.261178,1.263421 0.980753,1.392473 0.278626,0.04995 0.747676,0.02015 0.89144,-0.05683 0.05002,-0.02678 0.351364,-0.252588 0.669512,-0.502048 l 0.578505,-0.453671 0.0159,0.463821 0.01555,0.463819 h 0.80179 0.801788 V 11.21836 c -2.6e-5,-0.177833 -0.0032,-0.180158 -0.263203,-0.180995 -0.4484,-0.0014 -0.423161,0.09407 -0.468557,-1.7564932 C 39.602566,8.3725059 39.556594,7.5131507 39.522656,7.3711208 39.429223,6.9800118 39.185735,6.6899069 38.784131,6.4921976 38.500998,6.3528127 38.211875,6.2811162 37.909606,6.2777109 Z m 0.720934,2.3218051 c 0.07864,3.465e-4 0.09279,0.09422 0.105552,0.6952217 l 0.01488,0.6948839 -0.275719,0.2916204 c -0.48313,0.510836 -1.130512,0.718108 -1.55114,0.496636 -0.316707,-0.166749 -0.419927,-0.359376 -0.419503,-0.7835207 5.2e-4,-0.50834 0.139706,-0.727701 0.601174,-0.9479367 0.323286,-0.1542916 1.324423,-0.447684 1.524751,-0.4469046 z" />
      <path
         style="fill:#ffffff;stroke-width:0.0554283"
         d="m 25.383319,11.478821 c 0.485048,-0.0787 0.819307,-0.262861 1.222495,-0.67352 l 0.34292,-0.349277 -0.03705,0.471143 -0.03705,0.471143 h 0.893337 0.893329 l -1.9e-5,-0.152432 c -2.7e-5,-0.143457 -0.01453,-0.152426 -0.246848,-0.152426 -0.321035,0 -0.523287,-0.09579 -0.566593,-0.268354 -0.01912,-0.07616 -0.02088,-1.1319547 -0.0039,-2.3461948 0.02187,-1.5641257 0.01342,-2.2077139 -0.029,-2.2077139 -0.03293,0 -0.240714,0.06239 -0.461696,0.1386777 -0.220976,0.076268 -0.609467,0.1707694 -0.863307,0.209997 -0.439922,0.06798 -0.462344,0.07835 -0.479057,0.2216041 -0.01748,0.1495517 -0.01578,0.1502914 0.33583,0.1502914 0.591038,0 0.568557,-0.057349 0.568557,1.4504825 0,0.7112674 -0.01971,1.3639619 -0.04386,1.4504301 -0.05872,0.2106389 -0.509853,0.6852249 -0.784603,0.8253949 -0.121794,0.06213 -0.371837,0.124301 -0.555647,0.138141 -0.277918,0.02095 -0.376079,0.0026 -0.582907,-0.108452 -0.442652,-0.237826 -0.469402,-0.33272 -0.488439,-1.7328654 -0.0091,-0.6706847 0.0065,-1.5436806 0.03476,-1.9399886 0.02822,-0.3963146 0.03208,-0.7416766 0.0084,-0.7674704 -0.02357,-0.025794 -0.228937,0.017283 -0.456335,0.095797 -0.227391,0.078488 -0.597886,0.1712932 -0.823319,0.2062392 -0.555327,0.086082 -0.548446,0.083051 -0.548446,0.2419773 0,0.1354633 0.01224,0.1403143 0.353499,0.1403143 0.237794,0 0.374881,0.025794 0.418829,0.078724 0.04687,0.056498 0.06435,0.5106453 0.06193,1.6071504 -0.002,0.881238 0.02134,1.6400142 0.05499,1.7919752 0.115909,0.52294 0.512374,0.90023 1.058882,1.00768 0.335234,0.06591 0.363103,0.06597 0.760203,0.0013 z"
         id="path958" />
    </g>
  </g>
</svg>
