<?xml version="1.0" encoding="UTF-8" standalone="no"?>
<!-- Created with Inkscape (http://www.inkscape.org/) -->

<svg
   width="225"
   height="54"
   viewBox="0 0 59.531249 14.2875"
   version="1.1"
   id="svg5"
   inkscape:version="1.1.1 (3bf5ae0d25, 2021-09-20)"
   sodipodi:docname="logo2.svg"
   xmlns:inkscape="http://www.inkscape.org/namespaces/inkscape"
   xmlns:sodipodi="http://sodipodi.sourceforge.net/DTD/sodipodi-0.dtd"
   xmlns="http://www.w3.org/2000/svg"
   xmlns:svg="http://www.w3.org/2000/svg">
  <sodipodi:namedview
     id="namedview7"
     pagecolor="#ffffff"
     bordercolor="#666666"
     borderopacity="1.0"
     inkscape:pageshadow="2"
     inkscape:pageopacity="0.0"
     inkscape:pagecheckerboard="0"
     inkscape:document-units="mm"
     showgrid="false"
     units="px"
     width="225px"
     inkscape:zoom="0.9700894"
     inkscape:cx="118.54578"
     inkscape:cy="282.44819"
     inkscape:window-width="1920"
     inkscape:window-height="974"
     inkscape:window-x="-11"
     inkscape:window-y="-11"
     inkscape:window-maximized="1"
     inkscape:current-layer="layer1" />
  <defs
     id="defs2" />
  <g
     inkscape:label="Layer 1"
     inkscape:groupmode="layer"
     id="layer1">
    <g
       id="g1096"
       transform="matrix(0.65466506,0,0,0.65466506,-48.755653,-66.151565)"
       style="fill:#ffffff">
      <path
         style="fill:#ffffff;stroke-width:0.0846667"
         d="m 153.14339,108.59971 c 0.20263,-0.20263 0.24749,-0.3189 0.24749,-0.64151 0,-0.53935 -0.33263,-0.889 -0.84572,-0.889 -0.43865,0 -0.6413,0.10622 -0.8044,0.42164 -0.21363,0.4131 -0.16401,0.7445 0.15998,1.06849 0.3905,0.3905 0.87674,0.4063 1.24265,0.0404 z"
         id="path982" />
      <path
         style="fill:#ffffff;stroke-width:0.0846667"
         d="m 126.4867,108.60013 c 0.23494,-0.20992 0.27651,-0.30453 0.27651,-0.62944 0,-0.30769 -0.0486,-0.43308 -0.24868,-0.64194 -0.20731,-0.21639 -0.31381,-0.25956 -0.64032,-0.25956 -0.31797,0 -0.43267,0.0438 -0.60965,0.23283 -0.28999,0.30974 -0.35403,0.55563 -0.23702,0.91017 0.21536,0.65253 0.94572,0.84671 1.45916,0.38794 z"
         id="path980" />
      <path
         style="fill:#ffffff;stroke-width:0.0846667"
         d="m 154.57621,118.23075 c 0,-0.23765 0.003,-0.23628 -0.78213,-0.36449 -0.20143,-0.0329 -0.35532,-0.11961 -0.42334,-0.23854 -0.0811,-0.14182 -0.10686,-0.99642 -0.10686,-3.54517 0,-1.84706 -0.0262,-3.38452 -0.0581,-3.41657 -0.032,-0.032 -0.3618,0.0429 -0.73295,0.16647 -0.37115,0.1236 -0.95459,0.27137 -1.29653,0.32838 -0.57531,0.0959 -0.62366,0.12012 -0.64753,0.32418 -0.0251,0.21478 -0.0113,0.22145 0.52893,0.25586 0.3051,0.0194 0.60247,0.083 0.6608,0.14126 0.0767,0.0766 0.11418,0.6259 0.13536,1.98567 0.0351,2.25469 -0.0417,3.74275 -0.20162,3.90262 -0.0621,0.0621 -0.34406,0.13913 -0.62649,0.17108 -0.48712,0.0551 -0.51351,0.0699 -0.51351,0.28673 v 0.22863 h 2.032 2.032 z"
         id="path978" />
      <path
         style="fill:#ffffff;stroke-width:0.0846667"
         d="m 140.77554,118.23475 c 0,-0.21108 -0.0311,-0.22722 -0.60109,-0.31182 -0.33061,-0.0491 -0.62549,-0.1136 -0.6553,-0.14341 -0.15936,-0.15936 -0.23535,-3.44467 -0.10335,-4.46855 0.0932,-0.72269 0.3382,-1.06296 0.99921,-1.38754 0.64358,-0.31603 1.49365,-0.3333 2.01299,-0.0409 0.79073,0.44522 0.93692,1.10748 0.85332,3.86548 -0.0311,1.02447 -0.0783,2.05317 -0.10489,2.286 l -0.0484,0.42334 h 1.40615 1.40615 l -4e-5,-0.22675 c -4e-5,-0.21113 -0.0319,-0.23071 -0.46228,-0.28449 -0.81253,-0.10152 -0.75941,0.0938 -0.80891,-2.97436 -0.0417,-2.58347 -0.0513,-2.70983 -0.23278,-3.05143 -0.2537,-0.47759 -0.56168,-0.75998 -1.12074,-1.02763 -0.4022,-0.19255 -0.57613,-0.22305 -1.27618,-0.2238 -0.93521,-0.001 -1.07183,0.0634 -2.08798,0.98486 l -0.57284,0.51945 -0.0241,-0.80391 c -0.0132,-0.44216 0.0102,-1.73333 0.052,-2.86927 0.0419,-1.13594 0.0624,-2.08994 0.0457,-2.12 -0.0167,-0.0301 -0.3127,0.035 -0.65775,0.14457 -0.34506,0.10958 -0.95487,0.24658 -1.35514,0.30445 -0.71556,0.10346 -0.72777,0.1092 -0.72777,0.34227 0,0.23087 0.0121,0.23704 0.46567,0.23704 0.35278,0 0.50671,0.041 0.635,0.16933 0.16543,0.16543 0.16933,0.28222 0.16933,5.06382 0,3.78236 -0.024,4.92719 -0.10583,5.03844 -0.0626,0.0852 -0.32197,0.18192 -0.635,0.2369 -0.4922,0.0864 -0.52917,0.10856 -0.52917,0.31672 v 0.22379 h 2.032 2.032 z"
         id="path976" />
      <path
         style="fill:#ffffff;stroke-width:0.0846667"
         d="m 127.90623,118.22875 c -2e-5,-0.19909 -0.0415,-0.23567 -0.31752,-0.28005 -0.49983,-0.0804 -0.64754,-0.11885 -0.77556,-0.20208 -0.19546,-0.12709 -0.26489,-1.76125 -0.19107,-4.49716 0.037,-1.37301 0.0387,-2.53022 0.004,-2.57158 -0.0359,-0.0424 -0.37102,0.024 -0.76745,0.15193 -0.38705,0.12492 -0.98948,0.27403 -1.33873,0.33134 -0.59806,0.0981 -0.63656,0.11764 -0.66179,0.33491 -0.0266,0.22873 -0.0224,0.23068 0.48683,0.23068 0.40585,0 0.55025,0.0366 0.68818,0.17455 0.17035,0.17036 0.17391,0.24164 0.14816,2.97025 -0.0302,3.19722 0.0303,2.97406 -0.83216,3.07164 -0.45436,0.0514 -0.50655,0.0772 -0.50655,0.25066 0,0.10634 0.0159,0.20922 0.0354,0.22863 0.0194,0.0194 0.93385,0.0353 2.03202,0.0353 h 1.99668 z"
         id="path974" />
      <path
         style="fill:#ffffff;stroke-width:0.0846667"
         d="m 123.08017,118.23075 c 4e-5,-0.21199 -0.031,-0.23062 -0.47678,-0.28632 -0.88351,-0.11039 -0.81276,0.43156 -0.77968,-5.97162 0.0197,-3.807 10e-4,-5.58035 -0.0588,-5.58034 -0.0482,1e-5 -0.30236,0.0755 -0.56485,0.16776 -0.39517,0.13889 -1.75871,0.42493 -2.02563,0.42493 -0.0405,0 -0.0736,0.1143 -0.0736,0.254 v 0.254 h 0.53997 c 0.35593,0 0.57302,0.0398 0.63697,0.11689 0.0711,0.0856 0.0908,1.45572 0.0739,5.12545 -0.0196,4.24197 -0.0417,5.02004 -0.14464,5.08361 -0.0668,0.0413 -0.34303,0.10077 -0.61383,0.1322 -0.46187,0.0536 -0.49235,0.071 -0.49237,0.28166 l -2e-5,0.22452 h 1.98966 1.98966 z"
         id="path972" />
      <path
         style="fill:#ffffff;stroke-width:0.0846667"
         d="m 101.91353,118.23675 c 1e-5,-0.20976 -0.027,-0.22311 -0.54986,-0.27193 -0.79901,-0.0746 -0.86603,-0.12908 -0.92962,-0.75564 -0.0952,-0.93798 -0.0161,-4.23654 0.10258,-4.27603 0.0576,-0.0192 0.591,0.43217 1.18533,1.00298 0.59432,0.5708 1.88938,1.816 2.87791,2.7671 l 1.79733,1.72928 1.166,-0.004 1.16601,-0.004 0.0266,-0.2148 c 0.0236,-0.1904 -0.0106,-0.22074 -0.30098,-0.26718 -0.28803,-0.046 -0.69515,-0.39988 -3.37095,-2.92967 -1.67384,-1.58251 -3.04335,-2.91029 -3.04335,-2.95062 0,-0.0774 2.6075,-2.52324 3.88854,-3.6474 0.88347,-0.77529 1.12425,-0.90463 1.81923,-0.97727 0.48503,-0.0507 0.51523,-0.0668 0.51523,-0.27462 v -0.22078 h -1.397 -1.397 v 0.30135 c 0,0.281 -0.16173,0.46539 -2.39488,2.7305 -1.31718,1.33604 -2.46018,2.42915 -2.54,2.42915 -0.13303,0 -0.14495,-0.1675 -0.1431,-2.01083 0.002,-1.95309 0.0567,-2.56913 0.24522,-2.7576 0.0501,-0.0501 0.3404,-0.11688 0.64512,-0.14842 0.30473,-0.0315 0.56779,-0.0716 0.58457,-0.0891 0.0168,-0.0174 0.0438,-0.12194 0.0599,-0.2322 l 0.0295,-0.20047 -2.307153,-0.0112 -2.30715,-0.0112 -1.7e-5,0.23284 c -8e-6,0.22065 0.02103,0.23308 0.402158,0.23761 0.221192,0.003 0.533976,0.0503 0.695071,0.10583 0.245466,0.0847 0.304089,0.15512 0.361891,0.43483 0.03795,0.18357 0.05854,2.43965 0.04576,5.01352 -0.02051,4.13147 -0.03889,4.69541 -0.156963,4.81345 -0.08437,0.0843 -0.357844,0.15248 -0.740833,0.18459 -0.584615,0.049 -0.607094,0.0591 -0.607103,0.27145 l -8e-6,0.22055 h 2.285991 2.285996 l 2e-5,-0.22059 z"
         id="path970" />
      <path
         id="path966"
         style="fill:#ffffff;stroke-width:0.32"
         d="m 616.71484,402.0625 -0.80468,0.18164 c -0.44285,0.0994 -1.86802,0.46848 -3.16602,0.82031 -1.298,0.35188 -3.27645,0.73272 -4.39844,0.84766 -1.9827,0.20296 -2.04101,0.23488 -2.04101,1.125 0,0.912 0.008,0.91601 2.04101,0.91601 1.5069,0 2.15619,0.13903 2.48047,0.5293 0.63965,0.76993 0.85313,13.2307 0.22656,13.23047 -0.23584,-7e-5 -1.21476,-0.29877 -2.17578,-0.66406 -2.60727,-0.99099 -5.51161,-1.12559 -7.90039,-0.36719 -2.65311,0.84238 -7.28109,3.40215 -8.97851,4.9668 -4.06662,3.74846 -5.05725,12.33497 -2.10547,18.2539 2.57061,5.1546 8.33248,7.61611 13.82617,5.90625 0.60189,-0.18746 2.46423,-1.54706 4.13867,-3.01953 1.67452,-1.47246 3.12697,-2.67732 3.22656,-2.67773 0.0998,-3e-4 0.13564,1.26036 0.0801,2.80078 l -0.0996,2.80078 h 5.14063 5.14062 v -0.85156 c -1.5e-4,-0.75625 -0.15384,-0.87618 -1.36132,-1.06055 -2.1255,-0.32466 -3.109,-0.81443 -3.32032,-1.65625 -0.10582,-0.42229 -0.13759,-10.0646 -0.0703,-21.42578 z m -14.40625,18.73828 c 2.58835,0.018 5.37359,1.11993 7.75586,3.33399 l 1.36133,1.26367 -0.008,3.47656 c -0.0227,9.95743 -1.21416,13.18934 -5.51953,14.98828 -1.71957,0.71845 -4.8993,0.63502 -6.5293,-0.17187 -1.94438,-0.9625 -4.0471,-3.36802 -4.89258,-5.59571 -1.48853,-3.9219 -1.18304,-9.98699 0.66602,-13.22461 1.55295,-2.7191 4.23256,-4.09073 7.16601,-4.07031 z"
         transform="scale(0.26458333)" />
      <path
         style="fill:#ffffff;stroke-width:0.0846667"
         d="m 148.43497,118.54871 c 0.49272,-0.20587 0.72106,-0.95706 0.4211,-1.38531 -0.15696,-0.2241 -0.55067,-0.44169 -0.79919,-0.44169 -0.28684,0 -0.66454,0.23767 -0.8029,0.50523 -0.25848,0.49985 -0.0871,1.06222 0.39634,1.30047 0.34527,0.17016 0.42331,0.17228 0.78465,0.0213 z"
         id="path964" />
      <path
         id="path960"
         style="fill:#ffffff;stroke-width:0.32"
         d="m 500.33789,418.15039 c -2.55048,-0.0287 -5.26424,0.78655 -8.27344,2.45508 l -2.71875,1.50781 -0.0937,2.2793 c -0.0903,2.21151 -0.0699,2.28472 0.70899,2.43359 0.73542,0.1406 0.87106,-0.0268 1.61914,-1.98437 0.94552,-2.47446 1.84028,-3.09268 4.93359,-3.41602 4.67161,-0.48828 8.0463,2.1555 8.39844,6.58008 l 0.11328,1.41406 -4.80078,1.00781 c -6.51205,1.36967 -8.20257,1.91075 -9.8125,3.13868 -2.23514,1.70479 -3.2288,3.63371 -3.40039,6.59765 -0.27591,4.76357 1.50784,7.29401 5.66211,8.03906 1.60857,0.28838 4.3165,0.11635 5.14648,-0.32812 0.28876,-0.15458 2.0285,-1.45825 3.86524,-2.89844 l 3.33984,-2.61914 0.0918,2.67774 0.0898,2.67773 h 4.62891 4.6289 v -1.03906 c -1.5e-4,-1.02667 -0.0183,-1.04009 -1.51953,-1.04492 -2.58871,-0.008 -2.443,0.54311 -2.70508,-10.14063 -0.1285,-5.24417 -0.39391,-10.20542 -0.58984,-11.02539 -0.53941,-2.25796 -1.94512,-3.9328 -4.26367,-5.07422 -1.63459,-0.8047 -3.30376,-1.21862 -5.04883,-1.23828 z m 4.16211,13.4043 c 0.45403,0.002 0.53571,0.54395 0.60938,4.01367 l 0.0859,4.01172 -1.59179,1.68359 c -2.78922,2.94917 -6.5267,4.1458 -8.95508,2.86719 -1.82842,-0.96268 -2.42433,-2.07476 -2.42188,-4.52344 0.003,-2.93476 0.80655,-4.20118 3.47071,-5.47265 1.8664,-0.89076 7.64619,-2.58458 8.80273,-2.58008 z"
         transform="scale(0.26458333)" />
      <path
         style="fill:#ffffff;stroke-width:0.0846667"
         d="m 113.24718,118.58031 c 0.74091,-0.12022 1.25149,-0.40152 1.86736,-1.0288 l 0.52381,-0.53352 -0.0566,0.71967 -0.0566,0.71967 h 1.36457 1.36456 l -3e-5,-0.23284 c -4e-5,-0.21913 -0.0222,-0.23283 -0.37706,-0.23283 -0.49038,0 -0.79932,-0.14632 -0.86547,-0.40991 -0.0292,-0.11634 -0.0319,-1.72906 -0.006,-3.58381 0.0334,-2.3892 0.0205,-3.37228 -0.0443,-3.37228 -0.0503,0 -0.36769,0.0953 -0.70524,0.21183 -0.33754,0.1165 -0.93096,0.26085 -1.3187,0.32077 -0.67198,0.10384 -0.70623,0.11968 -0.73176,0.3385 -0.0267,0.22844 -0.0241,0.22957 0.51298,0.22957 0.90281,0 0.86847,-0.0876 0.86847,2.21561 0,1.08646 -0.0301,2.08345 -0.067,2.21553 -0.0897,0.32175 -0.7788,1.04668 -1.19848,1.26079 -0.18604,0.0949 -0.56798,0.18987 -0.84875,0.21101 -0.42452,0.032 -0.57446,0.004 -0.89039,-0.16566 -0.67615,-0.36328 -0.71701,-0.50823 -0.74609,-2.64695 -0.0139,-1.02447 0.01,-2.35797 0.0531,-2.96333 0.0431,-0.60537 0.049,-1.13291 0.0129,-1.17231 -0.036,-0.0394 -0.3497,0.0264 -0.69705,0.14633 -0.34734,0.11989 -0.91327,0.26165 -1.25762,0.31503 -0.84826,0.13149 -0.83775,0.12686 -0.83775,0.36962 0,0.20692 0.0187,0.21433 0.53997,0.21433 0.36323,0 0.57263,0.0394 0.63976,0.12025 0.0716,0.0863 0.0983,0.78001 0.0946,2.45492 -0.003,1.34609 0.0326,2.50512 0.084,2.73724 0.17705,0.79879 0.78265,1.3751 1.61744,1.53923 0.51207,0.10068 0.55464,0.10077 1.16121,0.002 z"
         id="path958" />
      <path
         style="fill:#ffffff;stroke-width:0.0262574"
         d="m 76.839087,121.90068 c 0.427346,-0.12686 0.880103,-0.44916 1.540826,-1.09686 l 0.374168,-0.36679 v -2.43391 -2.43391 l 0.964961,-0.92792 c 0.530728,-0.51035 1.058545,-1.01863 1.172926,-1.1295 l 0.207965,-0.20158 0.343441,0.30696 c 0.466743,0.41716 0.667891,0.58352 1.748214,1.44588 1.12175,0.89544 1.510574,1.22628 1.830886,1.55789 0.496443,0.51396 0.616375,0.83303 0.397855,1.05849 -0.166089,0.17136 -0.545909,0.26758 -1.160533,0.29399 l -0.415336,0.0179 -0.20336,-0.21006 c -0.111847,-0.11554 -0.445633,-0.49364 -0.741747,-0.84024 -0.942812,-1.10355 -1.299984,-1.3733 -1.782769,-1.34638 -0.217194,0.0121 -0.415197,0.0983 -0.612271,0.26655 l -0.100916,0.0862 0.300711,0.53622 c 0.165392,0.29492 0.510688,0.92024 0.767325,1.38959 0.542437,0.99203 0.722864,1.29644 1.243535,2.09804 l 0.382086,0.58824 2.11504,-0.0162 c 1.163271,-0.009 2.392712,-0.0285 2.732089,-0.0435 1.565064,-0.0692 2.43237,-0.18953 2.854758,-0.39611 0.640329,-0.31317 0.486924,-0.79404 -0.586011,-1.83698 -0.427256,-0.41531 -0.935229,-0.86093 -2.426292,-2.12845 -2.149112,-1.82692 -3.757327,-3.25327 -4.771058,-4.23152 l -0.215394,-0.20785 0.333553,-0.32143 c 1.231762,-1.18697 2.566028,-2.38497 5.033632,-4.51955 1.868721,-1.61653 2.465804,-2.21658 2.698587,-2.712 0.0996,-0.21197 0.09484,-0.42119 -0.0128,-0.56231 -0.233694,-0.30639 -1.033624,-0.48111 -2.62014,-0.5723 -0.646514,-0.0372 -2.74804,-0.0774 -4.070518,-0.078 l -1.116557,-6.2e-4 -0.198752,0.20349 c -1.044757,1.0697 -2.028849,2.40154 -2.56585,3.47255 -0.394173,0.78615 -0.478037,1.29085 -0.23602,1.42037 0.0345,0.0185 0.117702,0.0247 0.213146,0.0161 0.512571,-0.0465 1.7157,-0.9137 3.258008,-2.3484 l 0.495558,-0.46098 0.279036,0.0152 c 0.153471,0.008 0.344024,0.029 0.423453,0.0459 0.219879,0.0467 0.460853,0.17076 0.544349,0.28023 0.06556,0.086 0.0727,0.11614 0.0727,0.30742 0,0.19432 -0.009,0.23081 -0.10735,0.43529 -0.05904,0.12275 -0.197396,0.34264 -0.307453,0.48863 -0.191008,0.25338 -0.8204,0.95024 -0.979994,1.08505 -0.04159,0.0351 -0.211502,0.19022 -0.37758,0.34463 -0.447936,0.41649 -0.921491,0.82616 -1.785506,1.54463 -0.426027,0.35426 -1.052266,0.87502 -1.391644,1.15724 -0.339377,0.28221 -0.804175,0.67855 -1.032882,0.88074 -0.228708,0.20219 -0.462071,0.40755 -0.518585,0.45635 l -0.102751,0.0887 v -4.72918 -4.72916 l -0.177238,-0.14642 c -0.382665,-0.31601 -0.821777,-0.58433 -1.161891,-0.70985 -0.280504,-0.10352 -0.6059,-0.10676 -0.816251,-0.008 -0.331663,0.15553 -0.562083,0.52199 -0.718426,1.14259 -0.237441,0.94251 -0.280594,2.07815 -0.225862,5.94377 0.03601,2.54338 0.02609,3.26085 -0.08259,5.97356 -0.06805,1.69856 -0.08234,4.27848 -0.02669,4.81824 0.164907,1.59935 0.567479,2.20295 1.320215,1.97949 z"
         id="path956" />
    </g>
  </g>
</svg>
